<?xml version="1.0" standalone="no"?>
<!DOCTYPE svg PUBLIC "-//W3C//DTD SVG 20010904//EN"
 "http://www.w3.org/TR/2001/REC-SVG-20010904/DTD/svg10.dtd">
<svg version="1.0" xmlns="http://www.w3.org/2000/svg"
 width="1852.000000pt" height="863.000000pt" viewBox="0 0 1852.000000 863.000000"
 preserveAspectRatio="xMidYMid meet">

<g transform="translate(0.000000,863.000000) scale(0.100000,-0.100000)"
fill="#000000" stroke="none">
<path d="M3780 8235 c0 -108 1 -115 20 -115 19 0 20 7 20 115 0 108 -1 115
-20 115 -19 0 -20 -7 -20 -115z"/>
<path d="M5184 8335 c-4 -9 -2 -21 4 -27 15 -15 44 -1 40 19 -4 23 -36 29 -44
8z"/>
<path d="M5740 8235 c0 -108 1 -115 20 -115 19 0 20 7 20 115 0 108 -1 115
-20 115 -19 0 -20 -7 -20 -115z"/>
<path d="M5826 8341 c-10 -16 5 -42 23 -39 21 4 21 42 -1 46 -9 2 -19 -1 -22
-7z"/>
<path d="M6334 8335 c-4 -9 -2 -21 4 -27 15 -15 44 -1 40 19 -4 23 -36 29 -44
8z"/>
<path d="M3473 8320 c-49 -20 -40 -81 18 -110 21 -11 39 -28 39 -37 0 -13 -8
-15 -45 -11 -38 5 -45 3 -45 -12 0 -21 19 -30 64 -30 48 0 78 25 74 63 -2 26
-11 36 -45 55 -56 31 -57 52 -2 52 33 0 40 3 37 18 -4 20 -59 27 -95 12z"/>
<path d="M4240 8225 l0 -107 65 4 c55 3 70 8 93 31 22 23 27 36 27 77 0 72
-24 93 -115 98 l-70 4 0 -107z m122 48 c39 -35 10 -113 -43 -113 l-29 0 0 65
c0 64 1 65 27 65 14 0 35 -7 45 -17z"/>
<path d="M4998 8226 c34 -98 39 -106 63 -106 24 0 28 8 62 105 l36 105 -24 0
c-22 0 -27 -8 -46 -75 -12 -42 -26 -72 -30 -68 -4 4 -16 37 -26 73 -17 57 -22
65 -45 68 l-27 3 37 -105z"/>
<path d="M4648 8313 c-10 -2 -18 -13 -18 -24 0 -10 -4 -19 -10 -19 -5 0 -10
-7 -10 -15 0 -8 5 -15 10 -15 6 0 10 -20 10 -44 0 -51 19 -76 56 -76 17 0 24
5 24 20 0 11 -7 20 -15 20 -11 0 -15 11 -15 40 0 29 4 40 15 40 8 0 15 7 15
15 0 8 -7 15 -15 15 -9 0 -15 9 -15 25 0 25 -1 26 -32 18z"/>
<path d="M6248 8312 c-10 -2 -18 -12 -18 -23 0 -10 -4 -19 -10 -19 -5 0 -10
-7 -10 -15 0 -8 5 -15 10 -15 6 0 10 -22 10 -49 0 -54 15 -74 52 -69 29 4 36
34 8 41 -28 7 -29 67 0 74 26 7 26 33 1 33 -13 0 -21 8 -23 23 -2 15 -9 21
-20 19z"/>
<path d="M14395 8295 c-24 -23 -25 -28 -25 -175 0 -147 1 -152 25 -175 l24
-25 561 0 561 0 24 25 c24 23 25 28 25 175 0 147 -1 152 -25 175 l-24 25 -561
0 -561 0 -24 -25z m359 -129 c-27 -20 -16 -25 62 -28 56 -3 69 -6 72 -20 3
-14 -3 -18 -23 -18 -17 0 -25 -5 -22 -12 2 -7 14 -12 26 -11 13 2 20 -1 16 -7
-3 -6 -17 -10 -30 -10 -28 0 -48 30 -38 56 4 12 2 15 -8 12 -8 -2 -15 -19 -17
-36 -5 -46 -32 -43 -32 3 0 19 -4 35 -10 35 -5 0 -10 -16 -10 -35 0 -48 -17
-44 -22 5 -5 53 6 80 34 80 21 0 21 0 2 -14z m246 -5 c0 -13 8 -21 23 -23 18
-2 23 -10 25 -40 2 -21 -1 -38 -7 -38 -5 0 -11 15 -13 33 -2 17 -7 32 -13 32
-5 0 -11 -15 -13 -32 -2 -21 -9 -33 -18 -33 -11 0 -14 15 -14 60 0 47 3 60 15
60 8 0 15 -9 15 -19z m-383 -7 c3 -8 1 -20 -5 -26 -8 -8 -7 -19 4 -39 12 -24
12 -29 1 -29 -8 0 -20 12 -27 28 l-14 27 -4 -27 c-2 -16 -10 -28 -18 -28 -10
0 -14 14 -14 55 l0 55 35 0 c23 0 38 -6 42 -16z m577 -6 c9 -12 16 -28 16 -35
0 -23 -39 -53 -70 -53 -30 0 -30 1 -30 55 l0 55 34 0 c25 0 39 -7 50 -22z
m138 1 c2 -7 22 -12 43 -13 39 -1 40 -2 43 -39 l3 -38 -58 3 c-58 3 -58 3 -63
38 -4 19 -4 41 -2 48 5 15 29 16 34 1z m-634 -31 c3 -14 -3 -18 -23 -18 -17 0
-25 -5 -22 -12 2 -7 14 -12 26 -11 13 2 20 -1 16 -7 -11 -18 -54 -11 -65 10
-16 31 4 62 38 58 16 -2 28 -10 30 -20z m262 11 c0 -6 -9 -8 -20 -4 -11 3 -20
2 -20 -4 0 -5 9 -13 21 -16 29 -10 20 -39 -14 -43 -15 -2 -27 2 -27 8 0 7 8 9
20 5 11 -3 20 -2 20 4 0 5 -9 13 -20 16 -20 6 -26 25 -13 38 10 11 53 8 53 -4z
m324 -5 c3 -9 6 -27 6 -40 0 -23 -3 -25 -37 -22 -46 4 -59 34 -19 44 14 3 26
10 26 16 0 5 -9 6 -20 3 -11 -4 -20 -2 -20 4 0 18 57 13 64 -5z"/>
<path d="M14845 8120 c-3 -5 1 -10 10 -10 9 0 13 5 10 10 -3 6 -8 10 -10 10
-2 0 -7 -4 -10 -10z"/>
<path d="M14570 8140 c0 -11 4 -20 9 -20 11 0 22 26 14 34 -12 12 -23 5 -23
-14z"/>
<path d="M15130 8115 c0 -46 13 -58 38 -33 25 25 8 78 -25 78 -9 0 -13 -15
-13 -45z"/>
<path d="M15330 8099 c0 -33 15 -39 23 -9 3 13 14 20 28 20 32 0 13 14 -22 16
-26 1 -29 -2 -29 -27z"/>
<path d="M15375 8089 c-4 -6 -5 -13 -2 -16 7 -7 27 6 27 18 0 12 -17 12 -25
-2z"/>
<path d="M14655 8120 c-3 -5 1 -10 10 -10 9 0 13 5 10 10 -3 6 -8 10 -10 10
-2 0 -7 -4 -10 -10z"/>
<path d="M15240 8084 c0 -8 5 -12 10 -9 6 3 10 10 10 16 0 5 -4 9 -10 9 -5 0
-10 -7 -10 -16z"/>
<path d="M3633 8263 c-7 -2 -13 -11 -13 -18 0 -10 9 -12 35 -8 23 4 35 2 35
-6 0 -12 -7 -15 -51 -25 -30 -6 -43 -29 -34 -57 8 -24 50 -35 70 -19 10 9 15
9 15 1 0 -6 11 -11 25 -11 24 0 25 3 25 55 0 42 -5 60 -20 75 -19 19 -59 25
-87 13z m57 -93 c-12 -22 -35 -26 -46 -9 -8 13 13 29 39 29 15 0 16 -3 7 -20z"/>
<path d="M3875 8245 c-51 -50 -11 -129 63 -123 26 2 38 8 40 20 2 13 -1 16
-12 12 -21 -8 -66 3 -66 16 0 6 20 10 45 10 43 0 45 1 45 29 0 58 -72 80 -115
36z m73 -22 c2 -8 -6 -13 -22 -13 -25 0 -33 10 -19 24 10 10 36 3 41 -11z"/>
<path d="M4031 8251 c-25 -25 -18 -47 20 -67 41 -21 37 -38 -6 -30 -27 5 -35
4 -35 -7 0 -31 66 -36 100 -9 29 24 20 57 -20 71 -40 13 -39 35 0 29 24 -4 30
-1 28 11 -5 25 -63 26 -87 2z"/>
<path d="M4478 8263 c-33 -8 -21 -33 15 -30 41 3 52 -17 12 -21 -38 -5 -55
-19 -55 -46 0 -28 18 -46 45 -46 12 0 26 5 33 12 9 9 12 9 12 0 0 -7 9 -12 20
-12 18 0 20 7 20 59 0 82 -27 104 -102 84z m62 -87 c0 -18 -30 -30 -43 -17 -5
5 -6 14 -3 20 10 16 46 13 46 -3z"/>
<path d="M4758 8263 c-33 -8 -21 -33 15 -30 41 3 52 -17 12 -21 -38 -5 -55
-19 -55 -46 0 -28 18 -46 45 -46 12 0 26 5 33 12 9 9 12 9 12 0 0 -7 9 -12 20
-12 18 0 20 7 20 59 0 82 -27 104 -102 84z m62 -87 c0 -18 -30 -30 -43 -17 -5
5 -6 14 -3 20 10 16 46 13 46 -3z"/>
<path d="M5180 8195 c0 -68 2 -75 20 -75 18 0 20 7 20 75 0 68 -2 75 -20 75
-18 0 -20 -7 -20 -75z"/>
<path d="M5278 8259 c-10 -5 -18 -21 -18 -35 0 -19 8 -28 35 -40 42 -17 37
-39 -7 -30 -24 5 -29 3 -26 -12 4 -23 53 -28 84 -7 36 23 31 53 -11 71 -39 16
-38 39 1 31 18 -3 24 0 24 14 0 15 -7 19 -32 19 -18 0 -41 -5 -50 -11z"/>
<path d="M5400 8205 c0 -61 2 -66 26 -77 20 -9 30 -9 47 1 15 10 22 11 25 2 2
-6 12 -11 23 -11 17 0 19 8 19 75 0 68 -2 75 -20 75 -17 0 -20 -7 -20 -42 0
-52 -11 -71 -36 -66 -15 2 -20 14 -22 56 -3 44 -6 52 -23 52 -17 0 -19 -7 -19
-65z"/>
<path d="M5598 8259 c-28 -16 -21 -29 15 -26 42 3 51 -15 11 -23 -43 -9 -54
-18 -54 -44 0 -28 18 -46 45 -46 12 0 26 5 33 12 9 9 12 9 12 0 0 -7 9 -12 20
-12 18 0 20 7 20 65 0 53 -3 66 -19 75 -25 13 -61 12 -83 -1z m62 -84 c0 -9
-7 -18 -16 -22 -18 -7 -39 11 -30 26 11 17 46 13 46 -4z"/>
<path d="M5830 8195 c0 -68 2 -75 20 -75 18 0 20 7 20 75 0 68 -2 75 -20 75
-18 0 -20 -7 -20 -75z"/>
<path d="M5900 8256 c0 -10 13 -16 35 -18 l35 -3 -40 -50 c-22 -27 -40 -53
-40 -57 0 -5 32 -8 70 -8 56 0 70 3 70 15 0 10 -11 15 -35 15 -19 0 -35 3 -35
6 0 4 16 26 35 50 19 23 35 47 35 53 0 7 -25 11 -65 11 -50 0 -65 -3 -65 -14z"/>
<path d="M6073 8263 c-7 -2 -13 -11 -13 -19 0 -10 7 -13 25 -8 14 3 33 3 42 0
15 -6 15 -8 3 -16 -8 -6 -25 -10 -37 -10 -27 0 -56 -40 -47 -64 8 -22 47 -30
73 -16 14 7 21 7 21 0 0 -5 9 -10 20 -10 18 0 20 7 20 59 0 51 -3 62 -22 75
-22 16 -60 20 -85 9z m65 -85 c-6 -16 -36 -34 -44 -26 -3 4 -4 14 -1 23 7 17
51 21 45 3z"/>
<path d="M6330 8195 c0 -73 1 -75 25 -75 24 0 25 2 25 75 0 73 -1 75 -25 75
-24 0 -25 -2 -25 -75z"/>
<path d="M6435 8245 c-14 -13 -25 -36 -25 -50 0 -35 42 -75 78 -75 44 0 82 35
82 75 0 67 -87 99 -135 50z m88 -29 c12 -30 -4 -56 -33 -56 -29 0 -40 18 -32
53 5 21 57 24 65 3z"/>
<path d="M6600 8195 c0 -73 1 -75 24 -75 23 0 25 4 28 53 3 45 6 52 26 55 21
3 22 0 22 -52 0 -53 1 -56 25 -56 24 0 25 3 25 58 0 47 -4 63 -21 77 -17 16
-25 17 -50 8 -16 -6 -29 -7 -29 -2 0 5 -11 9 -25 9 -24 0 -25 -2 -25 -75z"/>
<path d="M3443 7920 c0 -30 2 -43 4 -27 2 15 2 39 0 55 -2 15 -4 2 -4 -28z"/>
<path d="M4138 7963 c7 -3 16 -2 19 1 4 3 -2 6 -13 5 -11 0 -14 -3 -6 -6z"/>
<path d="M4220 7963 c14 -3 32 -10 40 -16 13 -11 13 -10 1 6 -7 9 -25 16 -40
16 l-26 -2 25 -4z"/>
<path d="M4943 7920 c0 -30 2 -43 4 -27 2 15 2 39 0 55 -2 15 -4 2 -4 -28z"/>
<path d="M5063 7920 c0 -30 2 -43 4 -27 2 15 2 39 0 55 -2 15 -4 2 -4 -28z"/>
<path d="M3559 7949 c-2 -27 3 -64 9 -71 4 -4 6 11 5 33 -1 39 -12 67 -14 38z"/>
<path d="M4599 7949 c-2 -27 3 -64 9 -71 4 -4 6 11 5 33 -1 39 -12 67 -14 38z"/>
<path d="M5169 7949 c-2 -27 3 -64 9 -71 4 -4 6 11 5 33 -1 39 -12 67 -14 38z"/>
<path d="M6369 7949 c-2 -27 3 -64 9 -71 4 -4 6 11 5 33 -1 39 -12 67 -14 38z"/>
<path d="M3500 7936 c0 -2 7 -7 16 -10 8 -3 12 -2 9 4 -6 10 -25 14 -25 6z"/>
<path d="M3743 7934 c21 -7 23 -24 3 -24 -8 0 -17 -4 -20 -9 -4 -5 3 -7 13 -4
13 3 21 -1 24 -14 3 -10 5 -2 4 17 -2 27 -7 35 -22 37 -16 1 -16 1 -2 -3z"/>
<path d="M3806 7931 c-4 -5 3 -7 14 -4 23 6 26 13 6 13 -8 0 -17 -4 -20 -9z"/>
<path d="M3868 7933 c7 -3 16 -2 19 1 4 3 -2 6 -13 5 -11 0 -14 -3 -6 -6z"/>
<path d="M4016 7931 c-4 -5 3 -7 14 -4 23 6 26 13 6 13 -8 0 -17 -4 -20 -9z"/>
<path d="M4420 7936 c0 -2 7 -7 16 -10 8 -3 12 -2 9 4 -6 10 -25 14 -25 6z"/>
<path d="M4480 7936 c0 -2 9 -6 20 -9 11 -3 18 -1 14 4 -5 9 -34 13 -34 5z"/>
<path d="M4647 7933 c-12 -12 -7 -22 16 -33 20 -10 20 -10 5 3 -10 8 -18 17
-18 20 0 3 8 8 18 10 14 4 14 5 1 6 -9 0 -19 -2 -22 -6z"/>
<path d="M4758 7933 c7 -3 16 -2 19 1 4 3 -2 6 -13 5 -11 0 -14 -3 -6 -6z"/>
<path d="M4826 7931 c-4 -5 3 -7 14 -4 23 6 26 13 6 13 -8 0 -17 -4 -20 -9z"/>
<path d="M4896 7931 c-4 -5 3 -7 14 -4 23 6 26 13 6 13 -8 0 -17 -4 -20 -9z"/>
<path d="M5100 7936 c0 -2 9 -6 20 -9 11 -3 18 -1 14 4 -5 9 -34 13 -34 5z"/>
<path d="M5233 7934 c21 -7 23 -24 3 -24 -8 0 -17 -4 -20 -9 -4 -5 3 -7 13 -4
13 3 21 -1 24 -14 3 -10 5 -2 4 17 -2 27 -7 35 -22 37 -16 1 -16 1 -2 -3z"/>
<path d="M5337 7933 c-3 -5 6 -9 20 -10 19 -1 22 1 12 8 -17 11 -26 11 -32 2z"/>
<path d="M5463 7934 c21 -7 23 -24 3 -24 -8 0 -17 -4 -20 -9 -4 -5 3 -7 13 -4
13 3 21 -1 24 -14 3 -10 5 -2 4 17 -2 27 -7 35 -22 37 -16 1 -16 1 -2 -3z"/>
<path d="M5540 7936 c0 -2 7 -7 16 -10 8 -3 12 -2 9 4 -6 10 -25 14 -25 6z"/>
<path d="M5613 7934 c21 -7 23 -24 3 -24 -8 0 -17 -4 -20 -9 -4 -5 3 -7 13 -4
13 3 21 -1 24 -14 3 -10 5 -2 4 17 -2 27 -7 35 -22 37 -16 1 -16 1 -2 -3z"/>
<path d="M5756 7931 c-4 -5 3 -7 14 -4 23 6 26 13 6 13 -8 0 -17 -4 -20 -9z"/>
<path d="M5823 7905 c0 -22 2 -30 4 -17 2 12 2 30 0 40 -3 9 -5 -1 -4 -23z"/>
<path d="M5854 7928 c8 -4 25 -4 38 1 20 8 18 9 -15 8 -24 -1 -32 -4 -23 -9z"/>
<path d="M5947 7933 c-3 -5 5 -8 18 -8 13 0 21 3 18 8 -2 4 -10 7 -18 7 -8 0
-16 -3 -18 -7z"/>
<path d="M6040 7936 c0 -2 7 -7 16 -10 8 -3 12 -2 9 4 -6 10 -25 14 -25 6z"/>
<path d="M6098 7933 c7 -3 16 -2 19 1 4 3 -2 6 -13 5 -11 0 -14 -3 -6 -6z"/>
<path d="M6318 7933 c7 -3 16 -2 19 1 4 3 -2 6 -13 5 -11 0 -14 -3 -6 -6z"/>
<path d="M6522 7926 c7 -8 15 -12 17 -11 5 6 -10 25 -20 25 -5 0 -4 -6 3 -14z"/>
<path d="M6557 7933 c6 -4 13 -22 16 -38 4 -27 5 -27 3 4 0 21 -7 36 -16 38
-10 3 -11 2 -3 -4z"/>
<path d="M3600 7909 c0 -5 11 -9 25 -9 14 0 25 2 25 4 0 2 -11 6 -25 8 -14 3
-25 1 -25 -3z"/>
<path d="M4765 7910 c-16 -7 -17 -9 -3 -9 9 -1 19 -9 21 -18 3 -11 5 -7 6 10
0 15 0 27 -1 26 -2 0 -12 -4 -23 -9z"/>
<path d="M4862 7895 c0 -16 2 -22 5 -12 2 9 2 23 0 30 -3 6 -5 -1 -5 -18z"/>
<path d="M6193 7907 c21 -17 21 -24 2 -30 -12 -4 -11 -5 1 -3 27 2 28 23 2 36
-21 10 -21 10 -5 -3z"/>
<path d="M6410 7909 c0 -5 11 -9 25 -9 14 0 25 2 25 4 0 2 -11 6 -25 8 -14 3
-25 1 -25 -3z"/>
<path d="M4023 7903 c9 -2 23 -2 30 0 6 3 -1 5 -18 5 -16 0 -22 -2 -12 -5z"/>
<path d="M4498 7903 c7 -3 16 -2 19 1 4 3 -2 6 -13 5 -11 0 -14 -3 -6 -6z"/>
<path d="M5118 7903 c7 -3 16 -2 19 1 4 3 -2 6 -13 5 -11 0 -14 -3 -6 -6z"/>
<path d="M5763 7903 c9 -2 23 -2 30 0 6 3 -1 5 -18 5 -16 0 -22 -2 -12 -5z"/>
<path d="M5953 7903 c9 -2 23 -2 30 0 6 3 -1 5 -18 5 -16 0 -22 -2 -12 -5z"/>
<path d="M5013 7890 c2 -8 12 -16 23 -17 13 -2 15 -1 4 4 -8 3 -19 11 -23 17
-6 7 -7 6 -4 -4z"/>
<path d="M3808 7878 c5 -5 16 -8 23 -6 8 3 3 7 -10 11 -17 4 -21 3 -13 -5z"/>
<path d="M4018 7878 c5 -5 16 -8 23 -6 8 3 3 7 -10 11 -17 4 -21 3 -13 -5z"/>
<path d="M4140 7880 c-23 -7 -23 -8 -3 -9 12 -1 25 4 28 9 3 6 5 10 3 9 -2 -1
-14 -5 -28 -9z"/>
<path d="M4338 7878 c5 -5 16 -8 23 -6 8 3 3 7 -10 11 -17 4 -21 3 -13 -5z"/>
<path d="M4477 7878 c2 -5 10 -8 18 -8 8 0 16 3 18 8 3 4 -5 7 -18 7 -13 0
-21 -3 -18 -7z"/>
<path d="M4898 7878 c5 -5 16 -8 23 -6 8 3 3 7 -10 11 -17 4 -21 3 -13 -5z"/>
<path d="M5097 7878 c2 -5 10 -8 18 -8 8 0 16 3 18 8 3 4 -5 7 -18 7 -13 0
-21 -3 -18 -7z"/>
<path d="M5758 7878 c5 -5 16 -8 23 -6 8 3 3 7 -10 11 -17 4 -21 3 -13 -5z"/>
<path d="M5948 7878 c6 -6 18 -8 28 -6 14 3 12 5 -9 10 -19 3 -25 2 -19 -4z"/>
<path d="M3618 7873 c6 -2 18 -2 25 0 6 3 1 5 -13 5 -14 0 -19 -2 -12 -5z"/>
<path d="M4208 7873 c6 -2 18 -2 25 0 6 3 1 5 -13 5 -14 0 -19 -2 -12 -5z"/>
<path d="M4648 7873 c7 -3 16 -2 19 1 4 3 -2 6 -13 5 -11 0 -14 -3 -6 -6z"/>
<path d="M4748 7873 c7 -3 16 -2 19 1 4 3 -2 6 -13 5 -11 0 -14 -3 -6 -6z"/>
<path d="M6428 7873 c6 -2 18 -2 25 0 6 3 1 5 -13 5 -14 0 -19 -2 -12 -5z"/>
<path d="M5690 7850 c-23 -7 -23 -8 -3 -9 12 -1 25 4 28 9 3 6 5 10 3 9 -2 -1
-14 -5 -28 -9z"/>
<path d="M10720 6945 c0 -43 4 -75 10 -75 6 0 10 32 10 75 0 43 -4 75 -10 75
-6 0 -10 -32 -10 -75z"/>
<path d="M11095 7009 c-10 -15 3 -25 16 -12 7 7 7 13 1 17 -6 3 -14 1 -17 -5z"/>
<path d="M3680 6940 l0 -70 34 0 c46 0 86 33 86 71 0 42 -31 69 -80 69 l-40 0
0 -70z m84 34 c33 -32 8 -84 -40 -84 -22 0 -24 4 -24 50 0 46 2 50 24 50 14 0
32 -7 40 -16z"/>
<path d="M4160 6940 c0 -81 17 -95 22 -17 l4 52 23 -52 c13 -29 27 -53 31 -53
4 0 17 24 28 53 l21 52 0 -52 c1 -29 6 -53 11 -53 6 0 10 30 10 70 0 86 -19
95 -46 20 -10 -27 -21 -50 -24 -50 -3 0 -14 23 -24 50 -13 36 -23 50 -37 50
-17 0 -19 -8 -19 -70z"/>
<path d="M9925 7000 c-3 -6 4 -10 18 -10 13 0 26 -3 30 -6 11 -11 -5 -34 -24
-34 -27 0 -24 -18 4 -22 32 -4 28 -32 -5 -36 -16 -2 -28 -8 -28 -13 0 -6 14
-9 31 -7 39 4 59 30 42 56 -7 12 -8 24 -1 36 6 12 6 22 -2 32 -14 16 -56 19
-65 4z"/>
<path d="M10030 6940 l0 -70 34 0 c46 0 86 33 86 71 0 42 -31 69 -80 69 l-40
0 0 -70z m84 34 c33 -32 8 -84 -40 -84 -22 0 -24 4 -24 50 0 46 2 50 24 50 14
0 32 -7 40 -16z"/>
<path d="M10221 7003 c2 -29 46 -128 58 -128 13 0 66 123 57 133 -10 10 -24
-10 -36 -53 -7 -25 -16 -45 -20 -45 -3 0 -13 21 -21 47 -8 25 -20 48 -27 51
-6 2 -12 0 -11 -5z"/>
<path d="M10360 7000 c0 -5 5 -10 10 -10 6 0 10 5 10 10 0 6 -4 10 -10 10 -5
0 -10 -4 -10 -10z"/>
<path d="M10770 7000 c0 -5 5 -10 10 -10 6 0 10 5 10 10 0 6 -4 10 -10 10 -5
0 -10 -4 -10 -10z"/>
<path d="M3940 6986 c0 -8 -6 -17 -12 -20 -10 -5 -10 -7 0 -12 6 -3 12 -21 12
-40 0 -34 22 -56 38 -39 4 4 1 10 -5 12 -7 3 -13 17 -13 33 0 16 6 31 13 34
10 5 10 7 0 12 -7 3 -13 12 -13 20 0 8 -4 14 -10 14 -5 0 -10 -6 -10 -14z"/>
<path d="M5310 6986 c0 -8 -6 -17 -12 -20 -10 -5 -10 -7 0 -12 6 -3 12 -21 12
-40 0 -34 22 -56 38 -39 4 4 1 10 -5 12 -7 3 -13 17 -13 33 0 16 6 31 13 34
10 5 10 7 0 12 -7 3 -13 12 -13 20 0 8 -4 14 -10 14 -5 0 -10 -6 -10 -14z"/>
<path d="M11030 6986 c0 -8 -6 -17 -12 -20 -10 -5 -10 -7 0 -12 6 -3 12 -21
12 -40 0 -34 22 -56 38 -39 4 4 1 10 -5 12 -7 3 -13 17 -13 33 0 16 6 31 13
34 10 5 10 7 0 12 -7 3 -13 12 -13 20 0 8 -4 14 -10 14 -5 0 -10 -6 -10 -14z"/>
<path d="M3835 6960 c-4 -6 5 -10 19 -10 36 0 33 -17 -5 -25 -24 -5 -29 -11
-27 -28 2 -18 10 -22 41 -23 36 -1 37 0 37 35 0 21 -5 42 -12 49 -15 15 -45
16 -53 2z m40 -60 c-3 -5 -13 -10 -21 -10 -8 0 -14 5 -14 10 0 6 9 10 21 10
11 0 17 -4 14 -10z"/>
<path d="M4005 6960 c-3 -6 5 -10 19 -10 14 0 28 -4 31 -10 3 -5 -3 -10 -14
-10 -11 0 -27 -7 -36 -16 -22 -23 -3 -42 40 -41 33 1 35 3 35 37 0 20 -5 41
-12 48 -15 15 -54 16 -63 2z m50 -60 c-3 -5 -13 -10 -21 -10 -8 0 -14 5 -14
10 0 6 9 10 21 10 11 0 17 -4 14 -10z"/>
<path d="M4355 6961 c-4 -7 4 -11 19 -11 35 0 33 -13 -5 -27 -45 -17 -36 -47
14 -50 l38 -1 -3 46 c-3 42 -6 47 -30 50 -14 2 -29 -2 -33 -7z m45 -61 c0 -5
-9 -10 -20 -10 -11 0 -20 5 -20 10 0 6 9 10 20 10 11 0 20 -4 20 -10z"/>
<path d="M4450 6918 c0 -56 17 -65 22 -10 2 29 7 37 23 37 16 0 21 -8 23 -37
4 -50 22 -49 22 1 0 45 -13 58 -57 58 -33 0 -33 -1 -33 -49z"/>
<path d="M4575 6961 c-4 -7 4 -11 19 -11 35 0 33 -13 -5 -27 -45 -17 -36 -47
14 -50 l38 -1 -3 46 c-3 42 -6 47 -30 50 -14 2 -29 -2 -33 -7z m45 -61 c0 -5
-9 -10 -20 -10 -11 0 -20 5 -20 10 0 6 9 10 20 10 11 0 20 -4 20 -10z"/>
<path d="M4675 6947 c-27 -42 5 -88 50 -71 13 5 16 2 13 -12 -2 -13 -13 -20
-36 -22 -36 -4 -34 -22 3 -22 39 0 55 25 55 89 l0 58 -35 1 c-26 1 -39 -4 -50
-21z m60 -27 c0 -18 -6 -26 -22 -28 -20 -3 -23 1 -23 28 0 27 3 31 23 28 16
-2 22 -10 22 -28z"/>
<path d="M4794 6945 c-15 -23 -15 -27 0 -51 13 -18 24 -24 43 -22 15 2 28 8
30 14 2 7 -8 9 -27 6 -18 -3 -30 0 -30 7 0 6 14 11 30 11 22 0 30 5 30 18 0
45 -50 56 -76 17z m56 -5 c0 -5 -9 -10 -20 -10 -11 0 -20 5 -20 10 0 6 9 10
20 10 11 0 20 -4 20 -10z"/>
<path d="M4900 6918 c0 -56 17 -65 22 -11 2 27 8 39 21 41 14 3 17 -4 17 -37
0 -23 5 -41 10 -41 6 0 10 11 10 24 0 34 10 56 25 56 15 0 25 -22 25 -56 0
-13 5 -24 10 -24 6 0 10 17 10 39 0 47 -22 71 -50 53 -12 -7 -21 -8 -25 -2 -3
5 -21 9 -40 8 -35 -1 -35 -1 -35 -50z"/>
<path d="M5086 6954 c-19 -18 -21 -55 -4 -72 15 -15 54 -16 63 -2 3 6 -5 10
-19 10 -14 0 -28 5 -31 10 -4 6 8 10 29 10 28 0 36 4 36 18 0 39 -45 55 -74
26z m49 -14 c4 -6 -5 -10 -20 -10 -15 0 -24 4 -20 10 3 6 12 10 20 10 8 0 17
-4 20 -10z"/>
<path d="M5180 6918 c0 -56 17 -65 22 -10 2 29 7 37 23 37 16 0 21 -8 23 -37
4 -50 22 -49 22 1 0 45 -13 58 -57 58 -33 0 -33 -1 -33 -49z"/>
<path d="M10360 6920 c0 -27 5 -50 10 -50 6 0 10 23 10 50 0 28 -4 50 -10 50
-5 0 -10 -22 -10 -50z"/>
<path d="M10417 6963 c-14 -13 -6 -42 13 -48 29 -9 25 -25 -7 -25 -19 0 -24
-3 -16 -11 6 -6 21 -9 34 -7 32 4 39 44 10 53 -27 8 -27 25 -1 25 11 0 20 5
20 10 0 11 -43 14 -53 3z"/>
<path d="M10502 6923 c3 -48 3 -48 41 -50 l37 -1 0 49 c0 27 -4 49 -10 49 -5
0 -10 -18 -10 -40 0 -33 -3 -40 -20 -40 -17 0 -20 7 -20 40 0 22 -5 40 -11 40
-6 0 -9 -19 -7 -47z"/>
<path d="M10625 6960 c-4 -6 5 -10 19 -10 36 0 33 -17 -5 -25 -24 -5 -29 -11
-27 -28 2 -18 10 -22 41 -23 36 -1 37 0 37 35 0 21 -5 42 -12 49 -15 15 -45
16 -53 2z m40 -60 c-3 -5 -13 -10 -21 -10 -8 0 -14 5 -14 10 0 6 9 10 21 10
11 0 17 -4 14 -10z"/>
<path d="M10770 6920 c0 -27 5 -50 10 -50 6 0 10 23 10 50 0 28 -4 50 -10 50
-5 0 -10 -22 -10 -50z"/>
<path d="M10820 6960 c0 -5 9 -10 20 -10 22 0 20 -7 -16 -57 -16 -23 -16 -23
30 -23 48 0 64 16 21 22 l-25 3 25 38 26 37 -41 0 c-22 0 -40 -4 -40 -10z"/>
<path d="M10925 6961 c-4 -7 4 -11 19 -11 35 0 33 -13 -5 -27 -45 -17 -36 -47
14 -50 l38 -1 -3 46 c-3 42 -6 47 -30 50 -14 2 -29 -2 -33 -7z m45 -61 c0 -5
-9 -10 -20 -10 -11 0 -20 5 -20 10 0 6 9 10 20 10 11 0 20 -4 20 -10z"/>
<path d="M11090 6920 c0 -38 4 -50 15 -50 11 0 15 12 15 50 0 38 -4 50 -15 50
-11 0 -15 -12 -15 -50z"/>
<path d="M11158 6959 c-21 -12 -24 -59 -6 -77 17 -17 54 -15 72 4 44 44 -12
105 -66 73z m57 -39 c0 -18 -6 -26 -23 -28 -24 -4 -38 18 -28 44 3 9 15 14 28
12 17 -2 23 -10 23 -28z"/>
<path d="M11260 6919 c0 -37 4 -49 15 -49 11 0 15 11 15 40 0 33 3 40 20 40
17 0 20 -7 20 -40 0 -22 5 -40 11 -40 6 0 9 19 7 48 l-3 47 -42 2 -43 2 0 -50z"/>
<path d="M3903 6670 c0 -30 2 -43 4 -27 2 15 2 39 0 55 -2 15 -4 2 -4 -28z"/>
<path d="M9923 6670 c0 -30 2 -43 4 -27 2 15 2 39 0 55 -2 15 -4 2 -4 -28z"/>
<path d="M10618 6713 c7 -3 16 -2 19 1 4 3 -2 6 -13 5 -11 0 -14 -3 -6 -6z"/>
<path d="M10700 6713 c14 -3 32 -10 40 -16 13 -11 13 -10 1 6 -7 9 -25 16 -40
16 l-26 -2 25 -4z"/>
<path d="M11723 6670 c0 -30 2 -43 4 -27 2 15 2 39 0 55 -2 15 -4 2 -4 -28z"/>
<path d="M10039 6699 c-2 -27 3 -64 9 -71 4 -4 6 11 5 33 -1 39 -12 67 -14 38z"/>
<path d="M11079 6699 c-2 -27 3 -64 9 -71 4 -4 6 11 5 33 -1 39 -12 67 -14 38z"/>
<path d="M11359 6699 c-2 -27 3 -64 9 -71 4 -4 6 11 5 33 -1 39 -12 67 -14 38z"/>
<path d="M11759 6699 c-2 -27 3 -64 9 -71 4 -4 6 11 5 33 -1 39 -12 67 -14 38z"/>
<path d="M3777 6683 c-3 -5 5 -8 18 -8 13 0 21 3 18 8 -2 4 -10 7 -18 7 -8 0
-16 -3 -18 -7z"/>
<path d="M3856 6681 c-4 -5 3 -7 14 -4 23 6 26 13 6 13 -8 0 -17 -4 -20 -9z"/>
<path d="M4198 6683 c7 -3 16 -2 19 1 4 3 -2 6 -13 5 -11 0 -14 -3 -6 -6z"/>
<path d="M4328 6683 c7 -3 16 -2 19 1 4 3 -2 6 -13 5 -11 0 -14 -3 -6 -6z"/>
<path d="M4400 6686 c0 -2 7 -7 16 -10 8 -3 12 -2 9 4 -6 10 -25 14 -25 6z"/>
<path d="M4467 6683 c-3 -5 5 -8 18 -8 13 0 21 3 18 8 -2 4 -10 7 -18 7 -8 0
-16 -3 -18 -7z"/>
<path d="M4607 6683 c6 -4 13 -22 16 -38 4 -27 5 -27 3 4 0 21 -7 36 -16 38
-10 3 -11 2 -3 -4z"/>
<path d="M4640 6686 c0 -2 7 -7 16 -10 8 -3 12 -2 9 4 -6 10 -25 14 -25 6z"/>
<path d="M4718 6683 c7 -3 16 -2 19 1 4 3 -2 6 -13 5 -11 0 -14 -3 -6 -6z"/>
<path d="M4773 6655 c0 -22 2 -30 4 -17 2 12 2 30 0 40 -3 9 -5 -1 -4 -23z"/>
<path d="M4798 6683 c7 -3 16 -2 19 1 4 3 -2 6 -13 5 -11 0 -14 -3 -6 -6z"/>
<path d="M4868 6683 c7 -3 16 -2 19 1 4 3 -2 6 -13 5 -11 0 -14 -3 -6 -6z"/>
<path d="M4926 6681 c-4 -5 3 -7 14 -4 23 6 26 13 6 13 -8 0 -17 -4 -20 -9z"/>
<path d="M4973 6655 c0 -22 2 -30 4 -17 2 12 2 30 0 40 -3 9 -5 -1 -4 -23z"/>
<path d="M5200 6686 c0 -2 9 -6 20 -9 11 -3 18 -1 14 4 -5 9 -34 13 -34 5z"/>
<path d="M5313 6655 c0 -22 2 -30 4 -17 2 12 2 30 0 40 -3 9 -5 -1 -4 -23z"/>
<path d="M5508 6683 c7 -3 16 -2 19 1 4 3 -2 6 -13 5 -11 0 -14 -3 -6 -6z"/>
<path d="M5618 6683 c7 -3 16 -2 19 1 4 3 -2 6 -13 5 -11 0 -14 -3 -6 -6z"/>
<path d="M5678 6683 c7 -3 16 -2 19 1 4 3 -2 6 -13 5 -11 0 -14 -3 -6 -6z"/>
<path d="M5868 6683 c7 -3 16 -2 19 1 4 3 -2 6 -13 5 -11 0 -14 -3 -6 -6z"/>
<path d="M5928 6683 c7 -3 16 -2 19 1 4 3 -2 6 -13 5 -11 0 -14 -3 -6 -6z"/>
<path d="M5988 6683 c7 -3 16 -2 19 1 4 3 -2 6 -13 5 -11 0 -14 -3 -6 -6z"/>
<path d="M9980 6686 c0 -2 7 -7 16 -10 8 -3 12 -2 9 4 -6 10 -25 14 -25 6z"/>
<path d="M10223 6684 c21 -7 23 -24 3 -24 -8 0 -17 -4 -20 -9 -4 -5 3 -7 13
-4 13 3 21 -1 24 -14 3 -10 5 -2 4 17 -2 27 -7 35 -22 37 -16 1 -16 1 -2 -3z"/>
<path d="M10286 6681 c-4 -5 3 -7 14 -4 23 6 26 13 6 13 -8 0 -17 -4 -20 -9z"/>
<path d="M10348 6683 c7 -3 16 -2 19 1 4 3 -2 6 -13 5 -11 0 -14 -3 -6 -6z"/>
<path d="M10496 6681 c-4 -5 3 -7 14 -4 23 6 26 13 6 13 -8 0 -17 -4 -20 -9z"/>
<path d="M10900 6686 c0 -2 7 -7 16 -10 8 -3 12 -2 9 4 -6 10 -25 14 -25 6z"/>
<path d="M10960 6686 c0 -2 9 -6 20 -9 11 -3 18 -1 14 4 -5 9 -34 13 -34 5z"/>
<path d="M11127 6683 c-12 -12 -7 -22 16 -33 20 -10 20 -10 5 3 -10 8 -18 17
-18 20 0 3 8 8 18 10 14 4 14 5 1 6 -9 0 -19 -2 -22 -6z"/>
<path d="M11416 6681 c-4 -5 3 -7 14 -4 23 6 26 13 6 13 -8 0 -17 -4 -20 -9z"/>
<path d="M11523 6655 c0 -22 2 -30 4 -17 2 12 2 30 0 40 -3 9 -5 -1 -4 -23z"/>
<path d="M11554 6678 c8 -4 25 -4 38 1 20 8 18 9 -15 8 -24 -1 -32 -4 -23 -9z"/>
<path d="M11644 6661 c0 -21 7 -36 16 -38 10 -3 11 -2 3 4 -6 4 -13 22 -16 38
-4 27 -5 27 -3 -4z"/>
<path d="M12133 6655 c0 -22 2 -30 4 -17 2 12 2 30 0 40 -3 9 -5 -1 -4 -23z"/>
<path d="M12188 6683 c7 -3 16 -2 19 1 4 3 -2 6 -13 5 -11 0 -14 -3 -6 -6z"/>
<path d="M12348 6683 c7 -3 16 -2 19 1 4 3 -2 6 -13 5 -11 0 -14 -3 -6 -6z"/>
<path d="M4000 6659 c0 -5 11 -9 25 -9 14 0 25 2 25 4 0 2 -11 6 -25 8 -14 3
-25 1 -25 -3z"/>
<path d="M4725 6660 c-16 -7 -17 -9 -3 -9 9 -1 19 -9 21 -18 3 -11 5 -7 6 10
0 15 0 27 -1 26 -2 0 -12 -4 -23 -9z"/>
<path d="M4875 6660 c-16 -7 -17 -9 -3 -9 9 -1 19 -9 21 -18 3 -11 5 -7 6 10
0 15 0 27 -1 26 -2 0 -12 -4 -23 -9z"/>
<path d="M5000 6659 c0 -5 11 -9 25 -9 14 0 25 2 25 4 0 2 -11 6 -25 8 -14 3
-25 1 -25 -3z"/>
<path d="M5443 6657 c21 -17 21 -24 2 -30 -12 -4 -11 -5 1 -3 27 2 28 23 2 36
-21 10 -21 10 -5 -3z"/>
<path d="M5515 6660 c-16 -7 -17 -9 -3 -9 9 -1 19 -9 21 -18 3 -11 5 -7 6 10
0 15 0 27 -1 26 -2 0 -12 -4 -23 -9z"/>
<path d="M5615 6660 l-30 -8 33 -1 c17 0 32 4 32 9 0 6 -1 9 -2 9 -2 -1 -16
-5 -33 -9z"/>
<path d="M10080 6659 c0 -5 11 -9 25 -9 14 0 25 2 25 4 0 2 -11 6 -25 8 -14 3
-25 1 -25 -3z"/>
<path d="M11452 6645 c0 -16 2 -22 5 -12 2 9 2 23 0 30 -3 6 -5 -1 -5 -18z"/>
<path d="M11950 6659 c0 -5 11 -9 25 -9 14 0 25 2 25 4 0 2 -11 6 -25 8 -14 3
-25 1 -25 -3z"/>
<path d="M12185 6660 l-30 -8 33 -1 c17 0 32 4 32 9 0 6 -1 9 -2 9 -2 -1 -16
-5 -33 -9z"/>
<path d="M3693 6653 c9 -2 25 -2 35 0 9 3 1 5 -18 5 -19 0 -27 -2 -17 -5z"/>
<path d="M4328 6653 c7 -3 16 -2 19 1 4 3 -2 6 -13 5 -11 0 -14 -3 -6 -6z"/>
<path d="M5868 6653 c7 -3 16 -2 19 1 4 3 -2 6 -13 5 -11 0 -14 -3 -6 -6z"/>
<path d="M5988 6653 c7 -3 16 -2 19 1 4 3 -2 6 -13 5 -11 0 -14 -3 -6 -6z"/>
<path d="M10503 6653 c9 -2 23 -2 30 0 6 3 -1 5 -18 5 -16 0 -22 -2 -12 -5z"/>
<path d="M10978 6653 c7 -3 16 -2 19 1 4 3 -2 6 -13 5 -11 0 -14 -3 -6 -6z"/>
<path d="M3777 6629 c7 -7 15 -10 18 -7 3 3 -2 9 -12 12 -14 6 -15 5 -6 -5z"/>
<path d="M3858 6628 c5 -5 16 -8 23 -6 8 3 3 7 -10 11 -17 4 -21 3 -13 -5z"/>
<path d="M4467 6629 c7 -7 15 -10 18 -7 3 3 -2 9 -12 12 -14 6 -15 5 -6 -5z"/>
<path d="M4928 6628 c5 -5 16 -8 23 -6 8 3 3 7 -10 11 -17 4 -21 3 -13 -5z"/>
<path d="M5215 6630 c-16 -7 -17 -9 -3 -9 9 -1 20 4 23 9 7 11 7 11 -20 0z"/>
<path d="M10288 6628 c5 -5 16 -8 23 -6 8 3 3 7 -10 11 -17 4 -21 3 -13 -5z"/>
<path d="M10498 6628 c5 -5 16 -8 23 -6 8 3 3 7 -10 11 -17 4 -21 3 -13 -5z"/>
<path d="M10620 6630 c-23 -7 -23 -8 -3 -9 12 -1 25 4 28 9 3 6 5 10 3 9 -2
-1 -14 -5 -28 -9z"/>
<path d="M10818 6628 c5 -5 16 -8 23 -6 8 3 3 7 -10 11 -17 4 -21 3 -13 -5z"/>
<path d="M10957 6628 c2 -5 10 -8 18 -8 8 0 16 3 18 8 3 4 -5 7 -18 7 -13 0
-21 -3 -18 -7z"/>
<path d="M11870 6630 c-9 -6 -10 -10 -3 -10 6 0 15 5 18 10 8 12 4 12 -15 0z"/>
<path d="M4018 6623 c6 -2 18 -2 25 0 6 3 1 5 -13 5 -14 0 -19 -2 -12 -5z"/>
<path d="M4318 6623 c7 -3 16 -2 19 1 4 3 -2 6 -13 5 -11 0 -14 -3 -6 -6z"/>
<path d="M4708 6623 c7 -3 16 -2 19 1 4 3 -2 6 -13 5 -11 0 -14 -3 -6 -6z"/>
<path d="M4858 6623 c7 -3 16 -2 19 1 4 3 -2 6 -13 5 -11 0 -14 -3 -6 -6z"/>
<path d="M5018 6623 c6 -2 18 -2 25 0 6 3 1 5 -13 5 -14 0 -19 -2 -12 -5z"/>
<path d="M5498 6623 c7 -3 16 -2 19 1 4 3 -2 6 -13 5 -11 0 -14 -3 -6 -6z"/>
<path d="M5618 6623 c7 -3 16 -2 19 1 4 3 -2 6 -13 5 -11 0 -14 -3 -6 -6z"/>
<path d="M5678 6623 c7 -3 16 -2 19 1 4 3 -2 6 -13 5 -11 0 -14 -3 -6 -6z"/>
<path d="M5858 6623 c7 -3 16 -2 19 1 4 3 -2 6 -13 5 -11 0 -14 -3 -6 -6z"/>
<path d="M5978 6623 c7 -3 16 -2 19 1 4 3 -2 6 -13 5 -11 0 -14 -3 -6 -6z"/>
<path d="M10098 6623 c6 -2 18 -2 25 0 6 3 1 5 -13 5 -14 0 -19 -2 -12 -5z"/>
<path d="M10688 6623 c6 -2 18 -2 25 0 6 3 1 5 -13 5 -14 0 -19 -2 -12 -5z"/>
<path d="M11128 6623 c7 -3 16 -2 19 1 4 3 -2 6 -13 5 -11 0 -14 -3 -6 -6z"/>
<path d="M11968 6623 c6 -2 18 -2 25 0 6 3 1 5 -13 5 -14 0 -19 -2 -12 -5z"/>
<path d="M12188 6623 c7 -3 16 -2 19 1 4 3 -2 6 -13 5 -11 0 -14 -3 -6 -6z"/>
<path d="M12348 6623 c7 -3 16 -2 19 1 4 3 -2 6 -13 5 -11 0 -14 -3 -6 -6z"/>
<path d="M4940 6600 c-23 -7 -23 -8 -3 -9 12 -1 25 4 28 9 3 6 5 10 3 9 -2 -1
-14 -5 -28 -9z"/>
<path d="M12616 5928 c-9 -12 -16 -28 -16 -35 0 -19 30 -43 53 -42 19 0 19 2
-5 11 -22 7 -28 16 -28 38 0 22 6 31 28 38 24 9 24 11 5 11 -12 1 -29 -9 -37
-21z"/>
<path d="M13148 5939 c-21 -12 -24 -59 -6 -77 7 -7 21 -12 33 -12 18 0 17 2
-5 13 -16 8 -25 21 -25 37 0 16 9 29 25 37 14 7 18 13 10 13 -8 -1 -23 -5 -32
-11z"/>
<path d="M13573 5900 c0 -30 2 -43 4 -27 2 15 2 39 0 55 -2 15 -4 2 -4 -28z"/>
<path d="M13388 5929 c-2 -6 -2 -26 0 -45 3 -24 9 -34 21 -33 10 0 11 2 4 6
-15 5 -18 50 -4 55 5 2 3 8 -4 15 -9 9 -15 9 -17 2z"/>
<path d="M12713 5913 c23 -6 22 -20 -4 -28 -21 -7 -22 -26 -1 -33 7 -2 10 2 6
12 -3 9 -1 16 5 16 6 0 11 -7 11 -15 0 -8 5 -15 10 -15 11 0 13 30 4 54 -3 9
-16 15 -28 15 -16 -1 -17 -2 -3 -6z"/>
<path d="M12771 5881 c1 -35 2 -35 8 -7 9 43 31 45 32 4 l1 -33 9 33 c12 39
31 37 41 -4 6 -27 6 -27 5 6 -2 35 -2 35 -49 36 l-48 1 1 -36z"/>
<path d="M12894 5906 c-11 -28 1 -51 26 -53 l25 -3 -25 12 -25 12 28 4 c21 2
27 8 23 19 -3 8 -6 17 -6 19 0 11 -41 2 -46 -10z m41 -6 c3 -5 -3 -10 -15 -10
-12 0 -18 5 -15 10 3 6 10 10 15 10 5 0 12 -4 15 -10z"/>
<path d="M12973 5885 c0 -22 2 -30 4 -17 2 12 2 30 0 40 -3 9 -5 -1 -4 -23z"/>
<path d="M13040 5909 l25 -11 -28 -10 c-28 -10 -32 -28 -9 -36 7 -2 10 2 6 12
-4 10 -1 16 10 16 10 0 13 -6 10 -15 -4 -8 -1 -15 6 -15 7 0 10 13 8 33 -2 26
-8 32 -28 34 l-25 3 25 -11z"/>
<path d="M13220 5906 c-27 -33 18 -72 48 -42 13 13 14 20 6 34 -15 23 -38 26
-54 8z m48 -19 c4 -21 -27 -35 -38 -17 -12 19 0 42 19 38 9 -2 17 -11 19 -21z"/>
<path d="M13300 5886 c0 -20 2 -36 4 -36 8 0 12 61 4 66 -4 3 -8 -11 -8 -30z"/>
<path d="M13337 5909 c6 -8 13 -25 16 -39 4 -17 5 -15 4 9 -1 21 -8 36 -17 39
-12 4 -13 2 -3 -9z"/>
<path d="M13431 5883 c1 -38 1 -38 9 -9 5 16 15 33 22 37 9 6 6 9 -9 9 -20 0
-23 -5 -22 -37z"/>
<path d="M13492 5911 c-21 -13 -11 -55 15 -59 28 -4 50 32 32 54 -13 16 -28
18 -47 5z m35 -17 c8 -21 -13 -42 -28 -27 -13 13 -5 43 11 43 6 0 13 -7 17
-16z"/>
<path d="M13604 5908 c-4 -6 0 -16 9 -23 22 -16 21 -22 0 -29 -14 -4 -14 -4 2
-3 24 3 34 37 11 37 -22 0 -20 17 2 23 15 4 15 5 0 6 -9 0 -20 -4 -24 -11z"/>
<path d="M10085 5886 c-24 -36 -3 -76 40 -75 15 0 13 3 -8 11 -23 8 -28 15
-25 36 2 16 13 31 28 39 24 12 24 13 3 13 -13 0 -29 -10 -38 -24z"/>
<path d="M10173 5860 c-1 -39 1 -47 6 -26 9 41 31 46 31 7 0 -17 5 -31 10 -31
12 0 13 40 1 59 -5 8 -16 11 -24 8 -11 -4 -17 1 -20 16 -2 12 -4 -3 -4 -33z"/>
<path d="M10473 5898 c9 -7 18 -31 20 -53 l4 -40 1 47 c2 35 6 48 20 51 9 3
-1 5 -22 6 -34 1 -37 -1 -23 -11z"/>
<path d="M10378 5887 c-8 -22 7 -70 22 -75 12 -4 13 -2 3 9 -15 15 -17 46 -4
51 5 2 3 8 -4 15 -10 9 -14 9 -17 0z"/>
<path d="M10263 5874 c23 -7 22 -21 -4 -29 -21 -7 -22 -26 -1 -33 7 -2 10 2 6
12 -3 9 -1 16 5 16 6 0 11 -7 11 -15 0 -8 5 -15 11 -15 6 0 9 14 7 33 -2 26
-8 32 -28 34 -14 1 -18 0 -7 -3z"/>
<path d="M10321 5840 c1 -27 3 -29 6 -10 2 14 11 30 20 37 13 10 13 12 -6 10
-17 -1 -21 -7 -20 -37z"/>
<path d="M10531 5879 c-1 -3 4 -20 10 -38 8 -24 8 -35 -1 -46 -9 -11 -9 -15
-1 -15 13 0 56 88 47 97 -3 3 -8 -6 -12 -21 -8 -33 -17 -33 -31 2 -6 15 -11
24 -12 21z"/>
<path d="M10611 5826 c1 -31 4 -43 7 -31 4 11 16 20 27 20 16 0 20 7 20 30 0
26 -4 30 -27 31 -27 1 -28 -1 -27 -50z m46 28 c8 -21 -13 -42 -28 -27 -13 13
-5 43 11 43 6 0 13 -7 17 -16z"/>
<path d="M10694 5866 c-11 -28 1 -51 26 -53 l25 -3 -25 12 -25 12 28 4 c29 4
33 12 15 30 -16 16 -37 15 -44 -2z m36 -6 c0 -5 -7 -10 -16 -10 -8 0 -12 5 -9
10 3 6 10 10 16 10 5 0 9 -4 9 -10z"/>
<path d="M4100 5821 c0 -25 -3 -28 -25 -24 -19 4 -27 0 -36 -20 -17 -38 2 -67
46 -65 l35 1 0 69 c0 39 -4 68 -10 68 -5 0 -10 -13 -10 -29z m0 -66 c0 -18 -5
-25 -19 -25 -11 0 -23 5 -26 10 -11 18 3 40 25 40 15 0 20 -7 20 -25z"/>
<path d="M4210 5821 c0 -25 -3 -28 -25 -24 -19 4 -27 0 -36 -20 -17 -38 2 -67
46 -65 l35 1 0 69 c0 39 -4 68 -10 68 -5 0 -10 -13 -10 -29z m0 -66 c0 -18 -5
-25 -19 -25 -11 0 -23 5 -26 10 -11 18 3 40 25 40 15 0 20 -7 20 -25z"/>
<path d="M5250 5821 c0 -25 -3 -28 -25 -24 -19 4 -27 0 -37 -22 -17 -37 -1
-60 46 -62 l36 -1 0 69 c0 39 -4 69 -10 69 -5 0 -10 -13 -10 -29z m0 -61 c0
-24 -26 -38 -42 -22 -16 16 -2 42 22 42 13 0 20 -7 20 -20z"/>
<path d="M3932 5778 c-21 -58 -22 -93 -1 -55 6 9 21 17 34 17 13 0 28 -8 34
-17 5 -10 12 -15 15 -12 10 9 -35 129 -48 129 -7 0 -22 -28 -34 -62z m48 -5
c0 -7 -7 -13 -15 -13 -16 0 -19 9 -9 35 5 13 8 14 15 3 5 -7 9 -19 9 -25z"/>
<path d="M4310 5775 c0 -75 17 -89 22 -17 l3 47 28 -47 c41 -68 57 -64 57 17
0 75 -17 89 -22 18 l-3 -48 -30 48 c-42 66 -55 62 -55 -18z"/>
<path d="M4730 5775 c0 -37 4 -65 10 -65 6 0 10 11 10 25 0 33 13 32 38 -2 25
-34 40 -25 17 10 -11 17 -13 27 -6 32 17 10 13 52 -5 59 -9 3 -27 6 -40 6 -23
0 -24 -3 -24 -65z m60 25 c0 -13 -7 -20 -20 -20 -13 0 -20 7 -20 20 0 13 7 20
20 20 13 0 20 -7 20 -20z"/>
<path d="M4452 5788 c-29 -29 -7 -78 35 -78 29 0 30 18 1 22 -35 5 -34 28 1
28 17 0 31 4 31 8 0 14 -23 32 -40 32 -9 0 -21 -5 -28 -12z m41 -15 c-7 -2
-19 -2 -25 0 -7 3 -2 5 12 5 14 0 19 -2 13 -5z"/>
<path d="M4534 5783 c3 -10 8 -30 12 -45 9 -38 30 -35 39 5 l7 32 11 -32 c16
-51 27 -43 51 35 5 13 3 22 -3 22 -6 0 -15 -15 -20 -32 l-9 -33 -7 33 c-4 17
-11 32 -16 32 -5 0 -15 -15 -22 -32 l-14 -33 -7 33 c-4 17 -12 32 -17 32 -6 0
-8 -8 -5 -17z"/>
<path d="M4842 5788 c-29 -29 -7 -78 35 -78 29 0 30 18 1 22 -35 5 -34 28 1
28 17 0 31 4 31 8 0 14 -23 32 -40 32 -9 0 -21 -5 -28 -12z m41 -15 c-7 -2
-19 -2 -25 0 -7 3 -2 5 12 5 14 0 19 -2 13 -5z"/>
<path d="M4936 5784 c-9 -8 -16 -22 -16 -29 0 -20 28 -45 51 -45 27 0 24 18
-3 22 -15 2 -23 10 -23 23 0 13 8 21 23 23 12 2 22 8 22 13 0 15 -37 10 -54
-7z"/>
<path d="M5022 5788 c-7 -7 -12 -21 -12 -33 0 -12 5 -26 12 -33 7 -7 21 -12
33 -12 12 0 26 5 33 12 7 7 12 21 12 33 0 12 -5 26 -12 33 -7 7 -21 12 -33 12
-12 0 -26 -5 -33 -12z m56 -31 c4 -20 -25 -34 -40 -19 -15 15 -1 44 19 40 10
-2 19 -11 21 -21z"/>
<path d="M5120 5754 c0 -24 5 -44 10 -44 6 0 10 14 10 30 0 18 6 33 15 36 23
9 18 22 -10 22 -23 0 -25 -4 -25 -44z"/>
<path d="M12692 5678 c-2 -44 0 -48 21 -47 16 1 17 3 5 6 -12 3 -18 17 -21 46
l-4 42 -1 -47z"/>
<path d="M12765 5681 c19 -9 19 -10 -3 -10 -30 -1 -26 -36 3 -37 15 -1 16 0 3
3 -25 6 -22 23 3 23 26 0 20 24 -7 27 -18 3 -18 2 1 -6z"/>
<path d="M12808 5683 c7 -3 16 -2 19 1 4 3 -2 6 -13 5 -11 0 -14 -3 -6 -6z"/>
<path d="M12848 5683 c7 -3 16 -2 19 1 4 3 -2 6 -13 5 -11 0 -14 -3 -6 -6z"/>
<path d="M12926 5681 c-4 -5 3 -7 14 -4 23 6 26 13 6 13 -8 0 -17 -4 -20 -9z"/>
<path d="M13036 5681 c-4 -5 3 -7 14 -4 23 6 26 13 6 13 -8 0 -17 -4 -20 -9z"/>
<path d="M13106 5675 c-11 -8 -18 -16 -15 -18 2 -1 13 -9 24 -17 19 -14 19
-14 6 3 -11 14 -11 20 -1 32 16 19 11 19 -14 0z"/>
<path d="M13297 5683 c-3 -5 5 -8 18 -8 13 0 21 3 18 8 -2 4 -10 7 -18 7 -8 0
-16 -3 -18 -7z"/>
<path d="M13418 5683 c7 -3 16 -2 19 1 4 3 -2 6 -13 5 -11 0 -14 -3 -6 -6z"/>
<path d="M13475 5680 c-3 -6 1 -7 9 -4 18 7 21 14 7 14 -6 0 -13 -4 -16 -10z"/>
<path d="M13512 5660 c0 -19 2 -27 5 -17 2 9 2 25 0 35 -3 9 -5 1 -5 -18z"/>
<path d="M13578 5683 c7 -3 16 -2 19 1 4 3 -2 6 -13 5 -11 0 -14 -3 -6 -6z"/>
<path d="M13617 5683 c-3 -5 5 -8 18 -8 13 0 21 3 18 8 -2 4 -10 7 -18 7 -8 0
-16 -3 -18 -7z"/>
<path d="M13778 5683 c7 -3 16 -2 19 1 4 3 -2 6 -13 5 -11 0 -14 -3 -6 -6z"/>
<path d="M13828 5683 c7 -3 16 -2 19 1 4 3 -2 6 -13 5 -11 0 -14 -3 -6 -6z"/>
<path d="M13884 5683 c15 -4 16 -7 5 -14 -11 -7 -10 -9 4 -9 24 0 16 24 -9 27
-18 2 -18 2 0 -4z"/>
<path d="M13928 5683 c7 -3 16 -2 19 1 4 3 -2 6 -13 5 -11 0 -14 -3 -6 -6z"/>
<path d="M13988 5683 c7 -3 16 -2 19 1 4 3 -2 6 -13 5 -11 0 -14 -3 -6 -6z"/>
<path d="M12610 5665 c0 -8 5 -15 10 -15 6 0 10 7 10 15 0 8 -4 15 -10 15 -5
0 -10 -7 -10 -15z"/>
<path d="M13193 5663 c9 -2 23 -2 30 0 6 3 -1 5 -18 5 -16 0 -22 -2 -12 -5z"/>
<path d="M13405 5660 c-8 -13 3 -30 18 -29 9 0 9 2 0 6 -20 8 -15 21 10 26 22
4 22 4 0 6 -12 0 -25 -3 -28 -9z"/>
<path d="M13978 5663 c6 -2 18 -2 25 0 6 3 1 5 -13 5 -14 0 -19 -2 -12 -5z"/>
<path d="M12928 5638 c5 -5 16 -8 23 -6 8 3 3 7 -10 11 -17 4 -21 3 -13 -5z"/>
<path d="M13038 5638 c5 -5 16 -8 23 -6 8 3 3 7 -10 11 -17 4 -21 3 -13 -5z"/>
<path d="M13297 5638 c2 -5 10 -8 18 -8 8 0 16 3 18 8 3 4 -5 7 -18 7 -13 0
-21 -3 -18 -7z"/>
<path d="M13477 5639 c7 -7 15 -10 18 -7 3 3 -2 9 -12 12 -14 6 -15 5 -6 -5z"/>
<path d="M13617 5638 c2 -5 10 -8 18 -8 8 0 16 3 18 8 3 4 -5 7 -18 7 -13 0
-21 -3 -18 -7z"/>
<path d="M13885 5640 c-19 -8 -19 -9 3 -9 12 -1 22 4 22 9 0 6 -1 10 -2 9 -2
0 -12 -4 -23 -9z"/>
<path d="M13978 5638 c5 -5 16 -8 23 -6 8 3 3 7 -10 11 -17 4 -21 3 -13 -5z"/>
<path d="M13768 5633 c6 -2 18 -2 25 0 6 3 1 5 -13 5 -14 0 -19 -2 -12 -5z"/>
<path d="M13478 5603 c7 -3 16 -2 19 1 4 3 -2 6 -13 5 -11 0 -14 -3 -6 -6z"/>
<path d="M10750 5510 c0 -33 4 -60 10 -60 6 0 10 27 10 60 0 33 -4 60 -10 60
-6 0 -10 -27 -10 -60z"/>
<path d="M11083 5510 c0 -36 2 -50 4 -32 2 17 2 47 0 65 -2 17 -4 3 -4 -33z"/>
<path d="M11870 5560 c0 -5 5 -10 10 -10 6 0 10 5 10 10 0 6 -4 10 -10 10 -5
0 -10 -4 -10 -10z"/>
<path d="M10216 5538 c-20 -29 -20 -41 2 -66 10 -12 34 -22 62 -25 25 -3 37
-3 28 0 -20 5 -23 18 -8 28 16 10 11 51 -8 68 -26 23 -58 21 -76 -5z m73 -10
c17 -46 -21 -86 -54 -58 -18 15 -19 52 -3 68 19 19 48 14 57 -10z"/>
<path d="M10913 5543 c-4 -11 3 -23 20 -37 34 -28 34 -44 0 -49 l-28 -4 26 -2
c39 -2 55 23 31 47 -11 11 -25 21 -33 24 -20 7 1 30 22 25 11 -3 19 -1 19 4 0
16 -50 10 -57 -8z"/>
<path d="M11326 5544 c-19 -18 -21 -65 -4 -82 14 -14 68 -16 68 -3 0 5 -9 7
-20 4 -26 -7 -50 13 -50 42 0 29 24 49 50 42 11 -3 20 -1 20 4 0 15 -47 10
-64 -7z"/>
<path d="M12691 5513 c1 -26 4 -38 6 -25 3 17 9 22 21 18 15 -5 15 -4 0 8 -10
7 -18 18 -18 25 0 14 27 15 33 1 3 -6 4 -5 3 2 -1 7 -12 14 -24 16 -20 3 -22
-1 -21 -45z"/>
<path d="M10560 5540 c0 -5 -13 -10 -30 -10 -28 0 -30 -2 -30 -40 0 -22 5 -40
10 -40 6 0 10 16 10 35 0 28 4 35 19 35 15 0 21 -8 23 -32 2 -17 10 -33 18
-36 12 -4 13 -2 3 9 -15 15 -17 56 -4 61 5 2 3 9 -5 16 -8 7 -14 8 -14 2z"/>
<path d="M12290 5532 c0 -5 9 -17 19 -26 19 -17 21 -17 45 1 38 27 35 45 -4
21 -15 -10 -22 -10 -32 0 -14 14 -28 16 -28 4z"/>
<path d="M10333 5495 c2 -36 5 -40 30 -41 25 -1 27 1 26 40 l-2 41 -6 -35 c-4
-22 -12 -35 -21 -35 -9 0 -18 13 -22 35 l-6 35 1 -40z"/>
<path d="M10426 5521 c-4 -5 3 -7 14 -4 27 7 25 -10 -2 -22 -34 -15 -29 -39
10 -43 28 -3 32 0 32 22 0 13 -3 31 -6 40 -7 17 -39 22 -48 7z m34 -46 c0 -8
-7 -15 -15 -15 -8 0 -15 7 -15 15 0 8 7 15 15 15 8 0 15 -7 15 -15z"/>
<path d="M10614 5516 c-12 -32 0 -61 29 -64 15 -2 27 1 27 6 0 5 -10 8 -21 8
-12 -1 -24 5 -26 12 -3 8 6 12 26 12 33 0 39 8 19 28 -16 16 -47 15 -54 -2z
m46 -6 c0 -5 -9 -10 -21 -10 -11 0 -17 5 -14 10 3 6 13 10 21 10 8 0 14 -4 14
-10z"/>
<path d="M10690 5490 c0 -22 5 -40 10 -40 6 0 10 15 10 34 0 24 5 36 18 39 10
3 6 5 -10 6 -26 1 -28 -2 -28 -39z"/>
<path d="M10780 5525 c0 -3 7 -22 15 -42 18 -43 18 -38 -1 -57 -8 -9 -11 -16
-6 -16 5 0 14 6 19 13 14 18 43 100 38 105 -4 4 -13 -14 -27 -58 -3 -9 -8 -2
-12 17 -6 28 -26 57 -26 38z"/>
<path d="M11018 5523 c30 -6 28 -19 -4 -27 -35 -9 -29 -41 9 -42 26 -1 28 1
25 35 -3 30 -7 36 -28 38 -22 1 -22 1 -2 -4z m22 -42 c0 -14 -18 -23 -30 -16
-6 4 -8 11 -5 16 8 12 35 12 35 0z"/>
<path d="M11122 5518 c-27 -27 -2 -75 35 -65 15 4 14 5 -3 6 -12 0 -24 8 -28
16 -4 11 2 15 25 15 24 0 30 4 27 18 -4 21 -39 27 -56 10z m43 -8 c3 -5 -3
-10 -14 -10 -12 0 -21 5 -21 10 0 6 6 10 14 10 8 0 18 -4 21 -10z"/>
<path d="M11196 5515 c-3 -9 3 -19 14 -25 26 -14 26 -34 0 -27 -11 3 -20 1
-20 -4 0 -13 48 -11 56 3 4 7 -2 18 -14 26 -27 17 -28 29 -4 35 13 4 12 5 -4
6 -12 0 -24 -6 -28 -14z"/>
<path d="M11422 5521 c-8 -4 -12 -21 -10 -37 3 -25 7 -29 33 -29 28 0 30 3 30
35 0 27 -4 36 -20 38 -11 1 -26 -2 -33 -7z m43 -31 c0 -16 -6 -26 -18 -28 -19
-4 -32 20 -23 44 9 25 41 13 41 -16z"/>
<path d="M11500 5490 c0 -22 5 -40 10 -40 6 0 10 16 10 35 0 24 5 35 15 35 10
0 15 -11 15 -35 0 -19 5 -35 10 -35 6 0 10 16 10 35 0 24 5 35 15 35 10 0 15
-11 15 -35 0 -19 5 -35 10 -35 12 0 13 50 2 66 -4 6 -31 12 -59 13 l-53 1 0
-40z"/>
<path d="M11640 5468 c0 -32 4 -58 10 -58 6 0 10 9 10 20 0 13 7 20 20 20 26
0 44 34 30 59 -7 13 -20 19 -40 19 -30 -1 -30 -1 -30 -60z m55 21 c0 -15 -7
-25 -17 -27 -13 -3 -18 3 -18 21 0 13 3 27 7 31 13 12 28 -1 28 -25z"/>
<path d="M11758 5523 c30 -6 28 -19 -4 -27 -35 -9 -29 -41 9 -42 26 -1 28 1
25 35 -3 30 -7 36 -28 38 -22 1 -22 1 -2 -4z m22 -42 c0 -14 -18 -23 -30 -16
-6 4 -8 11 -5 16 8 12 35 12 35 0z"/>
<path d="M11821 5485 c2 -33 3 -35 6 -10 2 17 11 35 20 42 13 10 13 12 -6 10
-18 -1 -21 -7 -20 -42z"/>
<path d="M11870 5490 c0 -22 5 -40 10 -40 6 0 10 18 10 40 0 22 -4 40 -10 40
-5 0 -10 -18 -10 -40z"/>
<path d="M11917 5523 c-13 -13 -7 -32 13 -38 26 -8 26 -22 0 -28 -17 -4 -17
-4 2 -3 30 1 36 32 9 41 -27 8 -27 29 -1 22 11 -3 20 -1 20 4 0 10 -33 12 -43
2z"/>
<path d="M11980 5510 c-22 -40 26 -80 58 -48 17 17 15 55 -4 62 -27 11 -43 7
-54 -14z m55 -20 c0 -16 -6 -26 -18 -28 -19 -4 -32 20 -23 44 9 25 41 13 41
-16z"/>
<path d="M12070 5489 c0 -47 17 -52 22 -6 4 44 31 43 40 -3 l6 -35 -1 40 c-2
38 -4 40 -34 42 -32 1 -33 0 -33 -38z"/>
<path d="M12795 5520 c-3 -6 1 -7 9 -4 18 7 21 14 7 14 -6 0 -13 -4 -16 -10z"/>
<path d="M12832 5500 c0 -19 2 -27 5 -17 2 9 2 25 0 35 -3 9 -5 1 -5 -18z"/>
<path d="M12928 5523 c7 -3 16 -2 19 1 4 3 -2 6 -13 5 -11 0 -14 -3 -6 -6z"/>
<path d="M13006 5521 c-4 -5 3 -7 14 -4 23 6 26 13 6 13 -8 0 -17 -4 -20 -9z"/>
<path d="M13128 5523 c7 -3 16 -2 19 1 4 3 -2 6 -13 5 -11 0 -14 -3 -6 -6z"/>
<path d="M13186 5515 c-11 -8 -18 -16 -15 -18 2 -1 13 -9 24 -17 19 -14 19
-14 6 3 -11 14 -11 20 -1 32 16 19 11 19 -14 0z"/>
<path d="M13380 5526 c0 -2 9 -6 20 -9 11 -3 18 -1 14 4 -5 9 -34 13 -34 5z"/>
<path d="M13504 5523 c15 -4 16 -7 5 -14 -11 -7 -10 -9 4 -9 24 0 16 24 -9 27
-18 2 -18 2 0 -4z"/>
<path d="M13555 5520 c-3 -6 1 -7 9 -4 18 7 21 14 7 14 -6 0 -13 -4 -16 -10z"/>
<path d="M13658 5523 c7 -3 16 -2 19 1 4 3 -2 6 -13 5 -11 0 -14 -3 -6 -6z"/>
<path d="M13696 5521 c-4 -5 3 -7 14 -4 23 6 26 13 6 13 -8 0 -17 -4 -20 -9z"/>
<path d="M13820 5526 c0 -2 7 -7 16 -10 8 -3 12 -2 9 4 -6 10 -25 14 -25 6z"/>
<path d="M13884 5523 c15 -4 16 -7 5 -14 -11 -7 -10 -9 4 -9 24 0 16 24 -9 27
-18 2 -18 2 0 -4z"/>
<path d="M12610 5505 c0 -8 5 -15 10 -15 6 0 10 7 10 15 0 8 -4 15 -10 15 -5
0 -10 -7 -10 -15z"/>
<path d="M13283 5503 c9 -2 23 -2 30 0 6 3 -1 5 -18 5 -16 0 -22 -2 -12 -5z"/>
<path d="M12797 5479 c7 -7 15 -10 18 -7 3 3 -2 9 -12 12 -14 6 -15 5 -6 -5z"/>
<path d="M13008 5478 c5 -5 16 -8 23 -6 8 3 3 7 -10 11 -17 4 -21 3 -13 -5z"/>
<path d="M13118 5478 c5 -5 16 -8 23 -6 8 3 3 7 -10 11 -17 4 -21 3 -13 -5z"/>
<path d="M13395 5480 c-16 -7 -17 -9 -3 -9 9 -1 20 4 23 9 7 11 7 11 -20 0z"/>
<path d="M13505 5480 c-19 -8 -19 -9 3 -9 12 -1 22 4 22 9 0 6 -1 10 -2 9 -2
0 -12 -4 -23 -9z"/>
<path d="M13557 5479 c7 -7 15 -10 18 -7 3 3 -2 9 -12 12 -14 6 -15 5 -6 -5z"/>
<path d="M13698 5478 c5 -5 16 -8 23 -6 8 3 3 7 -10 11 -17 4 -21 3 -13 -5z"/>
<path d="M13800 5478 c0 -5 9 -8 19 -8 11 0 22 3 24 8 3 4 -6 7 -19 7 -13 0
-24 -3 -24 -7z"/>
<path d="M13885 5480 c-19 -8 -19 -9 3 -9 12 -1 22 4 22 9 0 6 -1 10 -2 9 -2
0 -12 -4 -23 -9z"/>
<path d="M12798 5443 c7 -3 16 -2 19 1 4 3 -2 6 -13 5 -11 0 -14 -3 -6 -6z"/>
<path d="M13558 5443 c6 -2 18 -2 25 0 6 3 1 5 -13 5 -14 0 -19 -2 -12 -5z"/>
<path d="M3921 5378 c1 -29 4 -43 6 -31 3 13 13 23 26 25 16 2 22 10 22 28 0
20 -6 26 -27 28 -28 3 -28 3 -27 -50z m44 22 c0 -8 -8 -16 -17 -18 -13 -2 -18
3 -18 18 0 15 5 20 18 18 9 -2 17 -10 17 -18z"/>
<path d="M4180 5412 c0 -13 -7 -18 -22 -18 -19 1 -23 -4 -23 -29 0 -26 4 -30
28 -31 26 -1 27 1 27 47 0 27 -2 49 -5 49 -3 0 -5 -8 -5 -18z m-3 -38 c8 -21
-13 -42 -28 -27 -13 13 -5 43 11 43 6 0 13 -7 17 -16z"/>
<path d="M4461 5378 c2 -52 2 -52 8 -13 l6 40 23 -37 c13 -21 28 -38 33 -38 5
0 8 24 7 53 -1 43 -2 45 -5 15 -2 -21 -7 -38 -11 -38 -4 0 -16 16 -26 35 -11
19 -23 35 -28 35 -4 0 -7 -24 -7 -52z"/>
<path d="M5636 5414 c-9 -8 -16 -24 -16 -34 0 -22 25 -50 45 -50 7 0 19 -2 27
-5 17 -7 23 71 7 91 -15 19 -44 18 -63 -2z m58 -17 c11 -18 0 -47 -21 -54 -12
-4 -43 23 -43 37 0 14 31 41 43 37 6 -2 15 -11 21 -20z"/>
<path d="M5740 5420 c-9 -6 -10 -10 -3 -10 7 0 14 -19 16 -42 3 -41 4 -41 5
10 1 28 1 52 0 52 -2 0 -10 -5 -18 -10z"/>
<path d="M5829 5414 c-11 -14 -10 -18 5 -30 10 -7 23 -15 29 -17 19 -6 -5 -29
-24 -24 -11 3 -19 1 -19 -4 0 -5 11 -9 25 -9 35 0 44 28 17 51 -28 22 -28 36
1 42 21 4 21 4 1 6 -12 0 -28 -6 -35 -15z"/>
<path d="M5983 5380 c0 -30 2 -43 4 -27 2 15 2 39 0 55 -2 15 -4 2 -4 -28z"/>
<path d="M7342 5418 c-16 -16 -15 -63 1 -75 6 -6 28 -13 47 -17 21 -3 30 -3
21 3 -10 7 -11 13 -1 30 23 43 -35 92 -68 59z m42 -4 c21 -8 21 -60 0 -68 -34
-13 -59 35 -32 62 14 14 12 14 32 6z"/>
<path d="M7445 5421 c-3 -6 0 -8 8 -5 25 9 30 -16 10 -39 -37 -40 -37 -47 -1
-46 23 1 26 3 11 6 -28 5 -29 14 -2 31 13 8 19 21 17 35 -3 23 -32 35 -43 18z"/>
<path d="M7563 5423 c-21 -8 -15 -31 12 -49 27 -18 23 -39 -6 -31 -11 3 -19 1
-19 -4 0 -10 21 -12 44 -3 23 9 20 25 -11 50 l-28 23 25 10 c14 5 18 10 10 10
-8 -1 -21 -3 -27 -6z"/>
<path d="M7700 5380 c0 -27 5 -50 10 -50 6 0 10 23 10 50 0 28 -4 50 -10 50
-5 0 -10 -22 -10 -50z"/>
<path d="M4368 5407 c-8 -22 7 -70 22 -75 12 -4 13 -2 3 9 -15 15 -17 46 -4
51 5 2 3 8 -4 15 -10 9 -14 9 -17 0z"/>
<path d="M4001 5360 c1 -27 3 -29 6 -10 2 14 11 30 20 37 13 10 13 12 -6 10
-17 -1 -21 -7 -20 -37z"/>
<path d="M4054 5386 c-10 -25 0 -51 20 -54 27 -6 48 25 35 49 -12 22 -47 25
-55 5z m43 -12 c8 -21 -13 -42 -28 -27 -13 13 -5 43 11 43 6 0 13 -7 17 -16z"/>
<path d="M4224 5371 c0 -21 7 -36 16 -38 10 -3 11 -2 3 4 -6 4 -13 22 -16 38
-4 27 -5 27 -3 -4z"/>
<path d="M4260 5365 c0 -19 5 -35 10 -35 6 0 10 16 10 35 0 19 -4 35 -10 35
-5 0 -10 -16 -10 -35z"/>
<path d="M4312 5391 c-23 -14 -10 -56 18 -58 25 -3 25 -3 3 7 -13 5 -23 16
-23 25 0 9 10 20 23 25 12 5 15 9 7 9 -8 0 -21 -3 -28 -8z"/>
<path d="M4583 5394 c23 -7 22 -20 -3 -27 -25 -6 -27 -37 -2 -36 10 0 12 3 5
6 -18 7 -16 23 1 23 8 0 17 -8 20 -17 2 -10 4 -2 3 17 -2 27 -7 35 -22 37 -16
1 -16 1 -2 -3z"/>
<path d="M4641 5361 c1 -35 2 -35 8 -7 9 43 31 45 32 4 l1 -33 7 29 c9 41 28
43 40 4 l10 -33 -2 35 c-2 35 -2 35 -49 36 l-48 0 1 -35z"/>
<path d="M4764 5386 c-11 -28 1 -51 26 -53 l25 -3 -25 12 -25 12 28 4 c29 4
33 12 15 30 -16 16 -37 15 -44 -2z m36 -6 c0 -5 -7 -10 -16 -10 -8 0 -12 5 -9
10 3 6 10 10 16 10 5 0 9 -4 9 -10z"/>
<path d="M5905 5391 c-3 -6 0 -8 8 -5 8 3 18 1 21 -4 3 -5 -3 -12 -14 -15 -30
-8 -26 -37 5 -35 22 2 26 7 23 33 -3 30 -30 46 -43 26z m30 -41 c-3 -5 -10
-10 -16 -10 -5 0 -9 5 -9 10 0 6 7 10 16 10 8 0 12 -4 9 -10z"/>
<path d="M6014 5386 c-11 -28 1 -51 26 -53 l25 -3 -25 12 -25 12 28 4 c29 4
33 12 15 30 -16 16 -37 15 -44 -2z m36 -6 c0 -5 -7 -10 -16 -10 -8 0 -12 5 -9
10 3 6 10 10 16 10 5 0 9 -4 9 -10z"/>
<path d="M6084 5388 c-4 -6 0 -16 9 -23 22 -16 21 -22 0 -28 -14 -4 -13 -5 4
-6 30 -1 40 19 17 36 -16 12 -17 15 -4 23 13 8 13 10 -2 10 -9 0 -20 -5 -24
-12z"/>
<path d="M7635 5391 c-3 -6 0 -8 8 -5 8 3 18 1 21 -4 3 -5 -3 -12 -14 -15 -30
-8 -26 -37 5 -35 22 2 26 7 23 33 -3 30 -30 46 -43 26z m30 -41 c-3 -5 -10
-10 -16 -10 -5 0 -9 5 -9 10 0 6 7 10 16 10 8 0 12 -4 9 -10z"/>
<path d="M7740 5385 c-18 -22 -1 -49 31 -52 23 -1 23 -1 2 4 -29 6 -30 23 -2
23 14 0 19 5 17 17 -4 24 -32 28 -48 8z m40 -5 c0 -5 -7 -10 -15 -10 -8 0 -15
5 -15 10 0 6 7 10 15 10 8 0 15 -4 15 -10z"/>
<path d="M7814 5388 c-4 -6 0 -16 9 -23 22 -16 21 -22 0 -29 -14 -4 -14 -4 2
-3 24 3 34 37 11 37 -22 0 -20 17 2 23 15 4 15 5 0 6 -9 0 -20 -4 -24 -11z"/>
<path d="M12696 5391 c-4 -5 3 -7 14 -4 23 6 26 13 6 13 -8 0 -17 -4 -20 -9z"/>
<path d="M12690 5366 c0 -3 9 -10 20 -16 11 -6 20 -8 20 -6 0 3 -9 10 -20 16
-11 6 -20 8 -20 6z"/>
<path d="M12756 5361 c-4 -5 3 -7 14 -4 23 6 26 13 6 13 -8 0 -17 -4 -20 -9z"/>
<path d="M12857 5363 c-3 -5 5 -8 18 -8 13 0 21 3 18 8 -2 4 -10 7 -18 7 -8 0
-16 -3 -18 -7z"/>
<path d="M13018 5363 c7 -3 16 -2 19 1 4 3 -2 6 -13 5 -11 0 -14 -3 -6 -6z"/>
<path d="M13057 5363 c-3 -5 5 -8 18 -8 13 0 21 3 18 8 -2 4 -10 7 -18 7 -8 0
-16 -3 -18 -7z"/>
<path d="M13158 5363 c6 -2 18 -2 25 0 6 3 1 5 -13 5 -14 0 -19 -2 -12 -5z"/>
<path d="M13217 5363 c-3 -5 5 -8 18 -8 13 0 21 3 18 8 -2 4 -10 7 -18 7 -8 0
-16 -3 -18 -7z"/>
<path d="M13287 5363 c-3 -5 5 -8 18 -8 13 0 21 3 18 8 -2 4 -10 7 -18 7 -8 0
-16 -3 -18 -7z"/>
<path d="M13374 5363 c8 -8 56 -11 51 -3 -3 4 -16 8 -30 8 -14 0 -24 -3 -21
-5z"/>
<path d="M12610 5345 c0 -8 5 -15 10 -15 6 0 10 7 10 15 0 8 -4 15 -10 15 -5
0 -10 -7 -10 -15z"/>
<path d="M12758 5318 c5 -5 16 -8 23 -6 8 3 3 7 -10 11 -17 4 -21 3 -13 -5z"/>
<path d="M12857 5318 c2 -5 10 -8 18 -8 8 0 16 3 18 8 3 4 -5 7 -18 7 -13 0
-21 -3 -18 -7z"/>
<path d="M13057 5318 c2 -5 10 -8 18 -8 8 0 16 3 18 8 3 4 -5 7 -18 7 -13 0
-21 -3 -18 -7z"/>
<path d="M13217 5318 c2 -5 10 -8 18 -8 8 0 16 3 18 8 3 4 -5 7 -18 7 -13 0
-21 -3 -18 -7z"/>
<path d="M13287 5318 c2 -5 10 -8 18 -8 8 0 16 3 18 8 3 4 -5 7 -18 7 -13 0
-21 -3 -18 -7z"/>
<path d="M12698 5313 c7 -3 16 -2 19 1 4 3 -2 6 -13 5 -11 0 -14 -3 -6 -6z"/>
<path d="M13158 5313 c6 -2 18 -2 25 0 6 3 1 5 -13 5 -14 0 -19 -2 -12 -5z"/>
<path d="M12094 4818 c3 -13 6 -60 6 -105 0 -49 4 -83 10 -83 6 0 10 42 10
105 0 90 -2 105 -16 105 -12 0 -15 -6 -10 -22z"/>
<path d="M12640 4735 c0 -63 4 -105 10 -105 6 0 10 42 10 105 0 63 -4 105 -10
105 -6 0 -10 -42 -10 -105z"/>
<path d="M11170 4810 c-46 -46 -13 -171 48 -185 17 -3 38 -15 48 -26 9 -10 24
-19 32 -19 12 0 11 5 -6 23 -21 23 -21 23 -2 42 35 37 31 116 -9 156 -35 35
-81 39 -111 9z m95 -25 c19 -18 25 -35 25 -68 0 -52 -13 -67 -57 -67 -26 0
-36 6 -48 30 -19 37 -19 80 1 108 20 29 49 28 79 -3z"/>
<path d="M12365 4810 c-27 -30 -13 -66 36 -90 31 -16 40 -26 37 -43 -3 -19 -9
-22 -46 -22 -25 0 -42 -5 -42 -11 0 -18 50 -26 81 -14 53 22 42 84 -21 110
-25 10 -30 18 -28 39 3 23 7 26 41 24 38 -2 50 10 21 21 -30 11 -61 6 -79 -14z"/>
<path d="M13073 4815 c-46 -32 -53 -134 -12 -171 28 -25 84 -23 111 3 15 15
23 38 26 77 4 48 2 57 -21 80 -30 30 -71 34 -104 11z m83 -19 c14 -11 19 -26
19 -64 0 -60 -17 -82 -61 -82 -40 0 -54 21 -54 79 0 66 49 101 96 67z"/>
<path d="M13750 4814 c0 -9 5 -14 12 -12 18 6 21 28 4 28 -9 0 -16 -7 -16 -16z"/>
<path d="M11753 4785 c-6 -14 -7 -25 -2 -25 5 0 9 -24 9 -54 0 -37 5 -60 16
-71 18 -18 45 -17 52 3 2 7 -2 10 -11 6 -21 -8 -37 25 -37 75 0 34 3 41 20 41
11 0 20 5 20 10 0 6 -9 10 -20 10 -11 0 -20 7 -20 15 0 23 -14 18 -27 -10z"/>
<path d="M11352 4714 c4 -72 25 -101 63 -89 11 4 28 7 38 6 13 0 17 9 17 43 0
58 -10 106 -23 106 -6 0 -7 -20 -3 -54 5 -43 3 -58 -10 -70 -33 -33 -53 -13
-60 62 -9 84 -28 80 -22 -4z"/>
<path d="M11521 4771 c-17 -11 1 -23 23 -15 16 6 46 -11 46 -27 0 -4 -16 -11
-35 -15 -41 -7 -61 -35 -46 -63 15 -27 41 -34 67 -16 17 11 24 11 27 2 10 -28
14 2 8 61 -4 39 -13 67 -21 72 -19 12 -51 12 -69 1z m69 -90 c0 -24 -25 -45
-45 -37 -18 7 -20 42 -2 49 27 12 47 7 47 -12z"/>
<path d="M11650 4743 c0 -54 11 -113 21 -113 4 0 9 26 11 58 3 48 7 59 26 67
27 12 29 25 2 25 -10 0 -24 -8 -29 -17 -10 -17 -10 -17 -11 0 0 9 -4 17 -10
17 -5 0 -10 -17 -10 -37z"/>
<path d="M11868 4769 c-22 -13 -32 -67 -19 -102 12 -31 51 -50 87 -41 33 9 31
28 -3 21 -35 -7 -63 8 -63 33 0 17 7 20 46 20 45 0 46 1 40 28 -12 46 -50 64
-88 41z m60 -31 c3 -14 -3 -18 -27 -18 -29 0 -41 17 -24 34 13 13 48 1 51 -16z"/>
<path d="M11990 4736 c0 -55 10 -106 21 -106 4 0 9 26 11 58 3 48 7 59 26 67
12 5 22 13 22 17 0 14 -28 9 -44 -8 -15 -14 -16 -14 -16 0 0 9 -4 16 -10 16
-5 0 -10 -20 -10 -44z"/>
<path d="M12164 4718 c13 -35 27 -71 31 -80 8 -21 -11 -58 -30 -58 -8 0 -15
-4 -15 -10 0 -15 36 -12 50 5 13 16 72 197 65 203 -10 10 -24 -13 -35 -58 -7
-27 -15 -50 -19 -50 -4 0 -16 25 -26 55 -11 30 -25 55 -32 55 -9 0 -6 -17 11
-62z"/>
<path d="M12512 4773 c-22 -9 -1 -23 25 -17 16 4 28 2 34 -7 14 -22 11 -27
-23 -34 -43 -10 -58 -22 -58 -51 0 -28 32 -48 63 -38 12 5 28 7 35 6 16 -4 17
119 0 136 -12 12 -52 15 -76 5z m68 -87 c0 -16 -26 -46 -39 -46 -5 0 -14 7
-21 15 -10 12 -10 18 0 30 16 19 60 20 60 1z"/>
<path d="M12728 4769 c-20 -11 -33 -67 -23 -98 10 -31 48 -53 79 -45 14 3 26
11 26 16 0 6 -11 7 -25 4 -17 -4 -31 0 -45 14 -31 31 -24 40 31 40 51 0 51 0
45 28 -12 46 -50 64 -88 41z m60 -31 c3 -14 -3 -18 -27 -18 -29 0 -41 17 -24
34 13 13 48 1 51 -16z"/>
<path d="M12856 4764 c-9 -8 -16 -18 -16 -20 0 -18 24 -43 50 -54 16 -7 30
-16 30 -20 0 -17 -30 -30 -54 -24 -15 3 -26 2 -26 -4 0 -19 51 -24 76 -7 35
23 31 52 -11 72 -44 21 -49 55 -7 53 41 -3 49 -1 32 10 -23 15 -57 12 -74 -6z"/>
<path d="M13223 4764 c39 -137 57 -162 76 -111 5 12 18 46 30 75 16 41 18 52
7 52 -8 0 -16 -10 -20 -23 -3 -13 -13 -41 -22 -63 l-17 -39 -17 59 c-9 33 -22
62 -29 64 -9 3 -11 -2 -8 -14z"/>
<path d="M13381 4754 c-21 -27 -27 -67 -15 -99 9 -22 49 -37 80 -29 36 9 29
24 -12 22 -35 -1 -54 12 -54 40 0 8 17 12 51 12 51 0 51 0 44 27 -4 16 -11 34
-17 40 -17 21 -55 15 -77 -13z m67 -17 c3 -13 -3 -17 -27 -17 -20 0 -31 5 -31
14 0 29 53 32 58 3z"/>
<path d="M13510 4705 c0 -43 4 -75 10 -75 6 0 10 20 10 45 0 44 24 85 50 85 6
0 10 5 10 10 0 15 -21 12 -42 -7 -17 -15 -18 -15 -18 0 0 10 -4 17 -10 17 -6
0 -10 -32 -10 -75z"/>
<path d="M13600 4773 c1 -4 9 -37 19 -73 25 -90 41 -89 79 5 20 49 26 75 18
75 -6 0 -23 -30 -36 -66 l-25 -65 -15 62 c-9 34 -21 64 -28 67 -7 2 -12 0 -12
-5z"/>
<path d="M13745 4709 c-7 -65 -3 -90 10 -77 12 11 18 148 7 148 -5 0 -13 -32
-17 -71z"/>
<path d="M13833 4765 c-24 -17 -39 -71 -28 -105 8 -26 47 -42 81 -34 33 8 31
28 -2 21 -18 -3 -33 2 -45 14 -30 30 -23 39 31 39 46 0 50 2 50 23 0 26 -28
57 -51 57 -8 0 -24 -7 -36 -15z m55 -17 c20 -20 14 -28 -23 -28 -19 0 -35 4
-35 8 0 12 22 32 35 32 6 0 16 -5 23 -12z"/>
<path d="M13944 4728 c15 -115 33 -129 62 -49 10 28 21 48 25 46 4 -3 10 -25
13 -50 12 -78 39 -50 81 84 14 46 -18 16 -34 -31 -23 -66 -28 -66 -36 -3 -9
73 -27 71 -56 -7 -13 -35 -24 -56 -26 -48 -1 8 -5 36 -8 63 -3 26 -11 47 -17
47 -7 0 -8 -18 -4 -52z"/>
<path d="M3925 4590 c-21 -23 -14 -66 13 -74 9 -2 26 -7 37 -10 17 -5 20 0 23
35 4 65 -35 91 -73 49z m53 -2 c27 -27 2 -75 -32 -62 -19 7 -22 60 -3 67 19 8
22 8 35 -5z"/>
<path d="M4043 4600 c9 -6 17 -15 17 -20 0 -6 -8 -10 -17 -10 -17 -1 -17 -1 0
-11 23 -14 21 -28 -5 -39 -23 -9 -23 -9 -2 -9 26 -1 49 23 38 41 -5 7 -8 22
-9 33 0 12 -8 21 -20 23 -18 2 -18 2 -2 -8z"/>
<path d="M4143 4593 c-4 -10 2 -23 15 -34 28 -22 28 -36 0 -42 -22 -4 -22 -4
-2 -6 12 0 27 5 33 13 10 11 6 19 -15 40 l-28 25 25 10 c24 10 24 10 1 10 -12
1 -25 -6 -29 -16z"/>
<path d="M4293 4560 c0 -30 2 -43 4 -27 2 15 2 39 0 55 -2 15 -4 2 -4 -28z"/>
<path d="M5636 4594 c-9 -8 -16 -24 -16 -34 0 -22 25 -50 45 -50 7 0 19 -2 27
-5 17 -7 23 71 7 91 -15 19 -44 18 -63 -2z m58 -17 c11 -18 0 -47 -21 -54 -12
-4 -43 23 -43 37 0 14 31 41 43 37 6 -2 15 -11 21 -20z"/>
<path d="M5747 4577 l-28 -37 25 0 c15 0 26 -7 29 -17 4 -17 5 -17 6 0 0 9 7
17 14 17 9 0 9 2 0 8 -6 4 -13 20 -15 36 l-3 30 -28 -37z m23 -12 c0 -8 -7
-15 -16 -15 -14 0 -14 3 -4 15 7 8 14 15 16 15 2 0 4 -7 4 -15z"/>
<path d="M5853 4593 c-4 -10 2 -23 15 -34 28 -22 28 -36 0 -42 -22 -4 -22 -4
-2 -6 12 0 27 5 33 13 10 11 6 19 -15 40 l-28 25 25 10 c24 10 24 10 1 10 -12
1 -25 -6 -29 -16z"/>
<path d="M6003 4560 c0 -30 2 -43 4 -27 2 15 2 39 0 55 -2 15 -4 2 -4 -28z"/>
<path d="M7333 4603 c13 -3 17 -16 19 -51 l1 -47 4 40 c2 22 11 46 20 53 14
10 11 12 -23 11 -21 -1 -31 -3 -21 -6z"/>
<path d="M7678 4588 c-6 -19 6 -71 17 -75 8 -2 11 30 6 80 -1 12 -19 8 -23 -5z"/>
<path d="M4233 4574 c23 -7 22 -21 -4 -29 -21 -7 -22 -26 -1 -33 7 -2 10 2 6
12 -3 9 -1 16 5 16 6 0 11 -7 11 -15 0 -8 5 -15 11 -15 6 0 9 14 7 33 -2 26
-8 32 -28 34 -14 1 -18 0 -7 -3z"/>
<path d="M4330 4565 c-17 -20 -2 -49 26 -52 13 -2 11 1 -6 9 l-25 12 28 4 c20
2 27 8 25 20 -4 23 -32 26 -48 7z m35 -5 c3 -5 -3 -10 -15 -10 -12 0 -18 5
-15 10 3 6 10 10 15 10 5 0 12 -4 15 -10z"/>
<path d="M4404 4568 c-4 -6 0 -16 9 -23 22 -16 21 -22 0 -28 -16 -4 -16 -5 -1
-6 24 -2 34 20 15 34 -22 16 -21 22 1 28 15 4 15 5 0 6 -9 0 -20 -4 -24 -11z"/>
<path d="M5943 4574 c23 -7 22 -21 -4 -29 -21 -7 -22 -26 -1 -33 7 -2 10 2 6
12 -3 9 -1 16 5 16 6 0 11 -7 11 -15 0 -8 5 -15 11 -15 6 0 9 14 7 33 -2 26
-8 32 -28 34 -14 1 -18 0 -7 -3z"/>
<path d="M6040 4565 c-17 -20 -2 -49 26 -52 13 -2 11 1 -6 9 l-25 12 28 4 c20
2 27 8 25 20 -4 23 -32 26 -48 7z m35 -5 c3 -5 -3 -10 -15 -10 -12 0 -18 5
-15 10 3 6 10 10 15 10 5 0 12 -4 15 -10z"/>
<path d="M6114 4568 c-4 -6 0 -16 9 -23 22 -16 21 -22 0 -28 -16 -4 -16 -5 -1
-6 24 -2 34 20 15 34 -22 16 -21 22 1 28 15 4 15 5 0 6 -9 0 -20 -4 -24 -11z"/>
<path d="M7413 4574 c23 -7 22 -21 -4 -29 -21 -7 -22 -26 -1 -33 7 -2 10 2 6
12 -3 9 -1 16 5 16 6 0 11 -7 11 -15 0 -8 5 -15 11 -15 6 0 9 14 7 33 -2 26
-8 32 -28 34 -14 1 -18 0 -7 -3z"/>
<path d="M7471 4540 c1 -27 3 -29 6 -10 2 14 11 30 20 37 13 10 13 12 -6 10
-17 -1 -21 -7 -20 -37z"/>
<path d="M7519 4564 c-14 -17 -3 -46 19 -50 7 -1 8 0 2 3 -5 2 -10 16 -10 30
0 18 5 24 18 21 28 -5 22 -60 -8 -75 -23 -12 -23 -13 -4 -13 30 0 44 19 44 60
0 30 -4 36 -24 38 -13 1 -30 -5 -37 -14z"/>
<path d="M7612 4571 c-23 -14 -10 -56 18 -58 l25 -3 -25 12 -25 12 28 4 c21 2
27 8 23 19 -3 8 -6 17 -6 19 0 7 -24 4 -38 -5z m33 -11 c3 -5 -3 -10 -15 -10
-12 0 -18 5 -15 10 3 6 10 10 15 10 5 0 12 -4 15 -10z"/>
<path d="M12190 4250 c-11 -7 -11 -11 -1 -24 7 -8 10 -20 7 -25 -10 -16 11
-22 23 -7 9 10 9 16 1 21 -6 4 -9 13 -6 21 7 17 -6 25 -24 14z"/>
<path d="M12328 4253 c7 -3 16 -2 19 1 4 3 -2 6 -13 5 -11 0 -14 -3 -6 -6z"/>
<path d="M12370 4251 c0 -6 7 -8 16 -4 14 5 16 1 12 -26 -3 -19 -1 -28 5 -22
14 14 4 55 -15 59 -10 2 -18 -1 -18 -7z"/>
<path d="M12420 4240 c0 -12 7 -20 16 -20 10 0 14 -6 10 -15 -3 -8 -1 -15 4
-15 6 0 10 9 10 20 0 11 -7 20 -15 20 -21 0 -19 18 3 23 13 4 11 5 -5 6 -17 1
-23 -5 -23 -19z"/>
<path d="M12333 4223 c12 -3 16 -10 12 -21 -5 -13 -3 -14 6 -5 14 14 3 33 -19
32 -15 -1 -14 -2 1 -6z"/>
<path d="M12074 3953 c4 -60 15 -346 26 -638 11 -291 22 -583 26 -648 l6 -117
212 2 211 3 3 510 c2 281 0 619 -4 753 l-6 242 -240 0 -240 0 6 -107z"/>
<path d="M12807 4037 c-3 -10 -2 -45 2 -66 1 -2 8 2 16 9 11 9 12 16 4 26 -6
7 -8 18 -5 23 4 5 2 12 -3 15 -5 3 -11 0 -14 -7z"/>
<path d="M12854 4028 c-4 -6 -3 -8 4 -4 6 3 13 -2 15 -11 4 -14 5 -13 6 5 1
23 -13 30 -25 10z"/>
<path d="M12928 4033 c6 -2 18 -2 25 0 6 3 1 5 -13 5 -14 0 -19 -2 -12 -5z"/>
<path d="M12980 4030 c0 -5 7 -7 15 -4 11 5 15 -1 15 -21 0 -22 -3 -26 -17
-20 -15 5 -16 4 -5 -6 9 -10 15 -10 24 -1 7 7 23 13 38 13 17 1 19 3 7 6 -10
3 -14 9 -10 16 4 8 1 8 -9 -1 -13 -10 -16 -9 -21 8 -5 20 -37 29 -37 10z"/>
<path d="M12942 4011 c-11 -6 -9 -9 6 -13 15 -4 19 -2 15 8 -6 16 -4 16 -21 5z"/>
<path d="M12928 3973 c6 -2 18 -2 25 0 6 3 1 5 -13 5 -14 0 -19 -2 -12 -5z"/>
<path d="M13407 3933 c-4 -6 -2 -42 2 -62 1 -2 8 2 17 10 14 12 14 14 -3 26
-15 12 -16 15 -3 23 9 6 10 10 3 10 -6 0 -14 -3 -16 -7z"/>
<path d="M13454 3928 c-4 -6 -3 -8 4 -4 6 3 13 -2 15 -11 4 -14 5 -13 6 5 1
23 -13 30 -25 10z"/>
<path d="M13538 3933 c7 -3 16 -2 19 1 4 3 -2 6 -13 5 -11 0 -14 -3 -6 -6z"/>
<path d="M13580 3930 c0 -5 7 -7 16 -3 12 4 15 0 12 -18 -2 -13 -9 -23 -16
-21 -6 1 -12 -3 -12 -9 0 -6 5 -9 12 -7 18 6 32 34 25 52 -7 17 -37 23 -37 6z"/>
<path d="M13630 3920 c0 -12 7 -20 18 -20 15 -1 15 -2 -3 -16 -11 -9 -14 -14
-6 -12 21 6 35 33 28 52 -9 23 -37 20 -37 -4z m30 0 c0 -5 -4 -10 -10 -10 -5
0 -10 5 -10 10 0 6 5 10 10 10 6 0 10 -4 10 -10z"/>
<path d="M13537 3894 c-18 -24 -18 -24 5 -23 13 0 17 3 10 6 -10 4 -10 8 -1
19 7 8 10 16 8 18 -2 2 -12 -7 -22 -20z"/>
<path d="M12706 3841 c-4 -6 -8 -819 -6 -1248 l0 -33 215 0 215 0 1 28 c1 15
1 30 0 34 0 3 10 278 23 610 18 456 21 605 13 610 -17 11 -455 10 -461 -1z"/>
<path d="M3935 3815 c-24 -23 -25 -28 -25 -175 0 -147 1 -152 25 -175 l24 -25
521 0 521 0 24 25 c24 23 25 28 25 175 0 147 -1 152 -25 175 l-24 25 -521 0
-521 0 -24 -25z m325 -176 l0 -60 -36 3 c-44 4 -65 29 -48 56 6 9 21 18 33 20
13 2 21 11 21 23 0 10 7 19 15 19 12 0 15 -13 15 -61z m90 0 l0 -60 -37 3
c-36 3 -38 5 -38 38 0 31 3 35 28 38 19 2 27 9 27 23 0 10 5 19 10 19 6 0 10
-27 10 -61z m540 1 l0 -60 -34 0 c-39 0 -61 21 -53 50 3 13 0 20 -9 20 -9 0
-14 -12 -14 -35 0 -24 -5 -35 -15 -35 -11 0 -15 11 -15 41 0 39 1 40 33 39 65
-4 77 -1 77 20 0 11 7 20 15 20 12 0 15 -13 15 -60z m-738 -4 c19 -50 16 -74
-6 -43 -16 21 -45 22 -52 2 -4 -8 -12 -15 -19 -15 -10 0 -8 14 8 55 14 34 27
54 36 53 7 -2 22 -25 33 -52z m335 38 c3 -8 1 -20 -5 -26 -8 -8 -7 -19 4 -39
12 -24 12 -29 1 -29 -8 0 -20 12 -27 28 l-14 27 -4 -27 c-2 -16 -10 -28 -18
-28 -10 0 -14 14 -14 55 l0 55 35 0 c23 0 38 -6 42 -16z m81 -26 c9 -9 15 -9
24 0 15 15 58 16 58 1 0 -6 -8 -8 -19 -4 -21 6 -34 -15 -25 -40 4 -10 13 -13
25 -10 11 4 19 2 19 -4 0 -19 -49 -12 -62 9 -14 22 -73 29 -65 8 2 -7 14 -12
26 -11 11 2 21 -2 21 -8 0 -6 -14 -9 -32 -7 -26 2 -34 8 -36 26 -2 13 -1 30 2
38 7 17 47 19 64 2z m170 -22 c2 -16 -2 -32 -10 -37 -42 -27 -90 10 -68 52 9
15 19 19 43 17 27 -3 33 -8 35 -32z"/>
<path d="M4204 3636 c-8 -21 3 -49 16 -41 5 3 10 15 10 25 0 25 -18 36 -26 16z"/>
<path d="M4294 3636 c-8 -22 3 -49 19 -43 6 2 12 14 12 27 0 27 -22 39 -31 16z"/>
<path d="M4834 3636 c-8 -21 3 -49 16 -41 5 3 10 15 10 25 0 25 -18 36 -26 16z"/>
<path d="M4106 3635 c-3 -9 0 -15 9 -15 16 0 20 16 6 24 -5 3 -11 -1 -15 -9z"/>
<path d="M4440 3660 c0 -11 4 -20 9 -20 11 0 22 26 14 34 -12 12 -23 5 -23
-14z"/>
<path d="M4525 3640 c-3 -5 1 -10 9 -10 9 0 16 5 16 10 0 6 -4 10 -9 10 -6 0
-13 -4 -16 -10z"/>
<path d="M4684 3636 c-8 -22 3 -49 19 -43 6 2 12 14 12 27 0 27 -22 39 -31 16z"/>
<path d="M13270 3727 c0 -37 -20 -460 -35 -762 -13 -257 -12 -295 17 -355 15
-30 27 -50 27 -43 27 553 52 1027 56 1088 l6 81 -36 17 -35 17 0 -43z"/>
<path d="M11619 3738 c-7 -21 -2 -68 8 -68 17 0 26 17 12 25 -5 4 -8 13 -5 21
3 7 1 16 -4 19 -6 4 -10 5 -11 3z"/>
<path d="M11665 3720 c-3 -5 -1 -10 4 -10 6 0 11 5 11 10 0 6 -2 10 -4 10 -3
0 -8 -4 -11 -10z"/>
<path d="M11730 3706 c0 -14 4 -27 8 -30 5 -3 6 8 4 25 -5 35 -12 38 -12 5z"/>
<path d="M11761 3714 c0 -11 3 -14 6 -6 3 7 2 16 -1 19 -3 4 -6 -2 -5 -13z"/>
<path d="M11787 3723 c-9 -9 -9 -41 1 -46 4 -3 7 8 7 24 0 16 0 29 -1 29 0 0
-4 -3 -7 -7z"/>
<path d="M11843 3723 c13 -3 16 -11 12 -26 -5 -17 -4 -19 4 -7 17 24 13 40
-11 39 -18 -1 -19 -2 -5 -6z"/>
<path d="M11528 3548 c-35 -15 -48 -26 -48 -41 0 -63 75 -936 81 -942 5 -4
168 -7 319 -6 l105 1 26 63 26 62 -18 380 c-10 209 -18 408 -19 443 l0 62
-212 0 c-194 -1 -217 -3 -260 -22z"/>
<path d="M4110 2660 c0 -40 4 -70 10 -70 6 0 10 30 10 70 0 40 -4 70 -10 70
-6 0 -10 -30 -10 -70z"/>
<path d="M3933 2713 c-23 -9 -15 -49 12 -63 14 -7 25 -19 25 -27 0 -7 -11 -13
-25 -13 -14 0 -25 -4 -25 -10 0 -5 13 -10 30 -10 41 0 58 32 30 60 -11 11 -24
20 -30 20 -5 0 -10 7 -10 15 0 9 9 15 25 15 14 0 25 5 25 10 0 10 -35 12 -57
3z"/>
<path d="M4380 2655 l0 -65 35 0 c43 0 75 29 75 69 0 37 -31 61 -77 61 l-33 0
0 -65z m78 33 c27 -27 7 -78 -30 -78 -15 0 -18 8 -18 45 0 37 3 45 18 45 10 0
23 -5 30 -12z"/>
<path d="M4608 2691 c-10 -12 -13 -23 -8 -26 6 -4 10 -20 10 -36 0 -29 23 -50
38 -34 4 4 1 10 -5 12 -7 3 -13 15 -13 28 0 13 6 26 13 28 8 4 9 8 1 14 -6 4
-13 14 -15 21 -3 9 -9 7 -21 -7z"/>
<path d="M4025 2670 c-4 -6 6 -10 22 -10 l28 -1 -33 -14 c-47 -20 -41 -50 11
-51 35 -1 37 0 37 30 0 18 -5 37 -12 44 -15 15 -45 16 -53 2z m40 -51 c-8 -12
-35 -12 -35 0 0 11 22 20 33 14 4 -2 5 -9 2 -14z"/>
<path d="M4166 2664 c-19 -18 -20 -28 -6 -55 6 -11 21 -19 35 -19 33 0 41 18
10 22 -37 4 -35 22 3 26 28 3 31 6 22 23 -13 23 -43 25 -64 3z m41 -10 c-3 -3
-12 -4 -19 -1 -8 3 -5 6 6 6 11 1 17 -2 13 -5z"/>
<path d="M4253 2664 c-4 -11 2 -23 18 -35 l24 -19 -22 0 c-13 0 -23 -4 -23
-10 0 -5 11 -10 25 -10 36 0 44 28 14 51 l-24 19 23 0 c12 0 22 5 22 10 0 17
-50 11 -57 -6z"/>
<path d="M4515 2670 c-4 -6 6 -10 22 -10 l28 -1 -33 -14 c-47 -20 -40 -49 11
-52 35 -1 37 0 37 31 0 18 -5 37 -12 44 -15 15 -45 16 -53 2z m40 -50 c-3 -5
-13 -10 -21 -10 -8 0 -14 5 -14 10 0 6 9 10 21 10 11 0 17 -4 14 -10z"/>
<path d="M4675 2670 c-4 -6 6 -10 22 -10 l28 -1 -33 -14 c-47 -20 -40 -49 11
-52 35 -1 37 0 37 31 0 18 -5 37 -12 44 -15 15 -45 16 -53 2z m40 -50 c-3 -5
-13 -10 -21 -10 -8 0 -14 5 -14 10 0 6 9 10 21 10 11 0 17 -4 14 -10z"/>
<path d="M12633 2623 c-15 -6 -18 -83 -3 -83 6 0 10 16 10 35 0 28 4 35 20 35
11 0 20 5 20 10 0 10 -26 12 -47 3z"/>
<path d="M5143 2145 c0 -27 2 -38 4 -22 2 15 2 37 0 50 -2 12 -4 0 -4 -28z"/>
<path d="M6920 2183 c14 -7 13 -30 -2 -35 -8 -3 -7 -6 4 -10 11 -5 15 0 14 20
-1 14 -7 27 -14 28 -7 1 -8 0 -2 -3z"/>
<path d="M7702 2178 c-7 -7 -12 -17 -12 -22 0 -6 5 -3 11 7 5 9 16 17 24 17 8
0 19 -8 24 -17 6 -10 11 -13 11 -7 0 13 -21 34 -35 34 -6 0 -16 -5 -23 -12z"/>
<path d="M7820 2185 c-1 -5 -1 -20 0 -32 1 -18 -4 -23 -22 -24 -20 -1 -21 -2
-3 -6 11 -3 23 -10 26 -15 10 -16 15 15 8 52 -3 19 -7 31 -9 25z"/>
<path d="M5091 2144 c0 -11 3 -14 6 -6 3 7 2 16 -1 19 -3 4 -6 -2 -5 -13z"/>
<path d="M5981 2144 c0 -11 3 -14 6 -6 3 7 2 16 -1 19 -3 4 -6 -2 -5 -13z"/>
<path d="M6801 2144 c0 -11 3 -14 6 -6 3 7 2 16 -1 19 -3 4 -6 -2 -5 -13z"/>
<path d="M7690 2134 c0 -14 19 -30 45 -36 16 -4 20 1 22 21 1 21 0 22 -8 8
-13 -22 -35 -22 -48 1 -6 9 -11 12 -11 6z"/>
<path d="M6860 2122 c0 -6 -8 -13 -17 -15 -16 -4 -16 -5 -1 -6 18 -1 34 16 24
26 -3 4 -6 1 -6 -5z"/>
<path d="M5065 2110 c-16 -7 -17 -9 -3 -9 9 -1 20 4 23 9 7 11 7 11 -20 0z"/>
<path d="M5955 2110 c-16 -7 -17 -9 -3 -9 9 -1 20 4 23 9 7 11 7 11 -20 0z"/>
<path d="M6010 2109 c0 -5 9 -9 20 -9 11 0 20 2 20 4 0 2 -9 6 -20 9 -11 3
-20 1 -20 -4z"/>
<path d="M6915 2110 c-16 -7 -17 -9 -3 -9 9 -1 20 4 23 9 7 11 7 11 -20 0z"/>
<path d="M3921 2063 c0 -27 3 -41 6 -33 3 8 11 18 17 22 8 5 7 8 -1 8 -7 0
-13 9 -13 19 0 11 6 22 13 24 7 3 5 6 -5 6 -15 1 -18 -7 -17 -46z"/>
<path d="M3991 2063 c1 -27 4 -38 6 -25 2 12 11 22 18 22 8 0 16 4 19 9 4 5
-3 7 -14 4 -14 -4 -20 0 -20 12 0 12 6 16 20 12 11 -3 18 -1 14 4 -3 5 -14 9
-25 9 -16 0 -19 -7 -18 -47z"/>
<path d="M4082 2098 c-7 -7 -12 -17 -12 -22 0 -6 5 -3 11 7 5 9 16 17 24 17 8
0 19 -8 24 -17 6 -10 11 -13 11 -7 0 13 -21 34 -35 34 -6 0 -16 -5 -23 -12z"/>
<path d="M4170 2065 c0 -40 2 -45 23 -44 16 1 18 2 5 6 -13 3 -18 14 -18 38 0
24 5 35 18 38 13 4 11 5 -5 6 -21 1 -23 -4 -23 -44z"/>
<path d="M4262 2079 c-1 -22 4 -42 13 -49 17 -14 45 -7 45 12 0 10 -3 9 -9 -1
-15 -24 -39 -4 -44 36 l-4 38 -1 -36z"/>
<path d="M4437 2102 c6 -4 13 -25 16 -47 l4 -40 1 42 c1 23 8 44 15 46 6 3 -1
6 -18 6 -17 0 -25 -3 -18 -7z"/>
<path d="M8583 2103 c9 -2 25 -2 35 0 9 3 1 5 -18 5 -19 0 -27 -2 -17 -5z"/>
<path d="M8731 2063 c1 -26 4 -38 6 -25 2 12 8 22 12 22 5 0 16 -10 25 -22
l17 -23 -11 23 c-6 13 -18 26 -26 29 -8 3 -14 11 -14 19 0 20 28 17 34 -3 4
-14 4 -14 3 2 -1 12 -11 21 -25 23 -20 3 -22 0 -21 -45z"/>
<path d="M8900 2065 c0 -40 2 -45 23 -44 16 1 18 2 5 6 -10 2 -18 11 -18 18 0
7 8 16 18 18 16 4 16 5 0 6 -10 0 -18 7 -18 15 0 8 8 17 18 19 13 4 11 5 -5 6
-21 1 -23 -4 -23 -44z"/>
<path d="M8973 2103 c9 -2 23 -2 30 0 6 3 -1 5 -18 5 -16 0 -22 -2 -12 -5z"/>
<path d="M4355 2089 c-4 -6 -5 -12 -2 -15 2 -3 7 2 10 11 7 17 1 20 -8 4z"/>
<path d="M8645 2052 c-3 -8 -3 -17 0 -20 3 -3 5 0 5 7 0 9 9 12 25 9 28 -6 25
7 -4 15 -12 3 -22 -1 -26 -11z"/>
<path d="M8857 2050 c6 -22 -14 -27 -35 -10 -7 5 -6 3 2 -6 18 -21 46 -11 46
16 0 11 -4 20 -9 20 -5 0 -7 -9 -4 -20z"/>
<path d="M4073 2051 c6 -25 33 -36 51 -22 9 8 16 19 16 25 0 6 -5 3 -11 -6 -5
-10 -16 -18 -24 -18 -8 0 -19 8 -25 18 -7 10 -10 11 -7 3z"/>
<path d="M4350 2054 c0 -17 27 -37 42 -31 8 4 7 6 -4 6 -9 1 -22 9 -27 19 -6
9 -11 12 -11 6z"/>
<path d="M5036 2021 c-4 -5 3 -7 14 -4 23 6 26 13 6 13 -8 0 -17 -4 -20 -9z"/>
<path d="M5192 1988 c-2 -44 0 -48 21 -47 16 1 17 3 5 6 -12 3 -18 17 -21 46
l-4 42 -1 -47z"/>
<path d="M5250 1985 c0 -40 2 -45 23 -44 16 1 18 2 5 6 -10 2 -18 11 -18 18 0
7 8 16 18 18 16 4 16 5 0 6 -10 0 -18 7 -18 15 0 8 8 17 18 19 13 4 11 5 -5 6
-21 1 -23 -4 -23 -44z"/>
<path d="M5323 2015 c-3 -9 -3 -19 1 -22 3 -4 6 1 6 10 0 8 8 18 18 20 16 4
16 5 -1 6 -10 0 -20 -6 -24 -14z"/>
<path d="M5926 2021 c-4 -5 3 -7 14 -4 23 6 26 13 6 13 -8 0 -17 -4 -20 -9z"/>
<path d="M6140 1985 c0 -40 2 -45 23 -44 16 1 18 2 5 6 -10 2 -18 11 -18 18 0
7 8 16 18 18 16 4 16 5 0 6 -10 0 -18 7 -18 15 0 8 8 17 18 19 13 4 11 5 -5 6
-21 1 -23 -4 -23 -44z"/>
<path d="M6216 2021 c-4 -5 3 -7 14 -4 23 6 26 13 6 13 -8 0 -17 -4 -20 -9z"/>
<path d="M6962 1988 c-2 -44 0 -48 21 -47 16 1 17 3 5 6 -12 3 -18 17 -21 46
l-4 42 -1 -47z"/>
<path d="M7030 1985 c0 -40 2 -45 23 -44 16 1 18 2 5 6 -21 5 -24 29 -5 36 10
4 10 6 0 6 -19 1 -15 29 5 34 13 4 11 5 -5 6 -21 1 -23 -4 -23 -44z"/>
<path d="M7852 1988 c-2 -44 0 -48 21 -47 16 1 17 3 5 6 -12 3 -18 17 -21 46
l-4 42 -1 -47z"/>
<path d="M7928 2023 c6 -2 18 -2 25 0 6 3 1 5 -13 5 -14 0 -19 -2 -12 -5z"/>
<path d="M6818 1991 c26 -22 28 -38 7 -44 -11 -4 -10 -4 2 -3 29 2 26 32 -4
50 l-28 17 23 -20z"/>
<path d="M7108 1991 c26 -22 28 -38 7 -44 -11 -4 -10 -4 2 -3 29 2 26 32 -4
50 l-28 17 23 -20z"/>
<path d="M5030 1996 c0 -3 9 -10 20 -16 11 -6 20 -8 20 -6 0 3 -9 10 -20 16
-11 6 -20 8 -20 6z"/>
<path d="M5920 1996 c0 -3 9 -10 20 -16 11 -6 20 -8 20 -6 0 3 -9 10 -20 16
-11 6 -20 8 -20 6z"/>
<path d="M6210 1996 c0 -3 9 -10 20 -16 11 -6 20 -8 20 -6 0 3 -9 10 -20 16
-11 6 -20 8 -20 6z"/>
<path d="M5123 1979 c-29 -11 -30 -19 -2 -12 12 4 25 0 30 -8 5 -8 9 -9 9 -4
0 23 -15 32 -37 24z"/>
<path d="M7710 1986 c0 -2 8 -10 18 -17 15 -13 16 -12 3 4 -13 16 -21 21 -21
13z"/>
<path d="M7765 1972 c-3 -8 -3 -17 0 -20 3 -3 5 0 5 7 0 9 9 12 25 9 28 -6 25
7 -4 15 -12 3 -22 -1 -26 -11z"/>
<path d="M7928 1983 c7 -3 16 -2 19 1 4 3 -2 6 -13 5 -11 0 -14 -3 -6 -6z"/>
<path d="M8000 1986 c0 -2 8 -10 18 -17 15 -13 16 -12 3 4 -13 16 -21 21 -21
13z"/>
<path d="M6003 1973 c9 -2 23 -2 30 0 6 3 -1 5 -18 5 -16 0 -22 -2 -12 -5z"/>
<path d="M6893 1973 c9 -2 23 -2 30 0 6 3 -1 5 -18 5 -16 0 -22 -2 -12 -5z"/>
<path d="M5045 1950 c-16 -7 -17 -9 -3 -9 9 -1 20 4 23 9 7 11 7 11 -20 0z"/>
<path d="M5935 1950 c-16 -7 -17 -9 -3 -9 9 -1 20 4 23 9 7 11 7 11 -20 0z"/>
<path d="M6225 1950 c-16 -7 -17 -9 -3 -9 9 -1 20 4 23 9 7 11 7 11 -20 0z"/>
<path d="M5328 1943 c7 -3 16 -2 19 1 4 3 -2 6 -13 5 -11 0 -14 -3 -6 -6z"/>
<path d="M6088 1943 c6 -2 18 -2 25 0 6 3 1 5 -13 5 -14 0 -19 -2 -12 -5z"/>
<path d="M7928 1943 c6 -2 18 -2 25 0 6 3 1 5 -13 5 -14 0 -19 -2 -12 -5z"/>
<path d="M3921 1518 c1 -29 3 -45 6 -35 3 10 16 22 30 28 35 13 29 53 -9 57
-28 3 -28 2 -27 -50z m44 21 c0 -7 -8 -15 -17 -17 -18 -3 -25 18 -11 32 10 10
28 1 28 -15z"/>
<path d="M4180 1552 c0 -13 -7 -18 -22 -18 -19 1 -23 -4 -23 -29 0 -26 4 -30
28 -31 26 -1 27 1 27 47 0 27 -2 49 -5 49 -3 0 -5 -8 -5 -18z m-3 -38 c8 -21
-13 -42 -28 -27 -13 13 -5 43 11 43 6 0 13 -7 17 -16z"/>
<path d="M4466 1523 c-9 -25 -14 -49 -11 -51 2 -3 7 3 11 12 8 21 33 21 51 -1
13 -16 14 -16 9 9 -10 44 -25 78 -35 78 -5 0 -16 -21 -25 -47z m32 -12 c-15
-5 -21 7 -13 26 7 17 8 17 15 -2 4 -11 3 -22 -2 -24z"/>
<path d="M5036 1561 c-4 -5 3 -7 14 -4 23 6 26 13 6 13 -8 0 -17 -4 -20 -9z"/>
<path d="M5220 1566 c0 -2 9 -6 20 -9 11 -3 18 -1 14 4 -5 9 -34 13 -34 5z"/>
<path d="M5295 1560 c-3 -6 1 -7 9 -4 18 7 21 14 7 14 -6 0 -13 -4 -16 -10z"/>
<path d="M5370 1566 c0 -2 9 -6 20 -9 11 -3 18 -1 14 4 -5 9 -34 13 -34 5z"/>
<path d="M5926 1561 c-4 -5 3 -7 14 -4 23 6 26 13 6 13 -8 0 -17 -4 -20 -9z"/>
<path d="M6018 1563 c-2 -5 -1 -28 3 -53 l6 -45 1 53 c2 48 -2 63 -10 45z"/>
<path d="M6107 1563 c-14 -14 -7 -43 11 -42 10 0 12 3 5 6 -19 7 -16 31 5 36
14 4 14 5 1 6 -9 0 -19 -2 -22 -6z"/>
<path d="M6190 1566 c0 -2 7 -7 16 -10 8 -3 12 -2 9 4 -6 10 -25 14 -25 6z"/>
<path d="M6256 1561 c-4 -5 3 -7 14 -4 23 6 26 13 6 13 -8 0 -17 -4 -20 -9z"/>
<path d="M6816 1561 c-4 -5 3 -7 14 -4 23 6 26 13 6 13 -8 0 -17 -4 -20 -9z"/>
<path d="M6990 1566 c0 -2 9 -6 20 -9 11 -3 18 -1 14 4 -5 9 -34 13 -34 5z"/>
<path d="M7070 1566 c0 -2 9 -6 20 -9 11 -3 18 -1 14 4 -5 9 -34 13 -34 5z"/>
<path d="M7146 1561 c-4 -5 3 -7 14 -4 23 6 26 13 6 13 -8 0 -17 -4 -20 -9z"/>
<path d="M7718 1563 c7 -3 16 -2 19 1 4 3 -2 6 -13 5 -11 0 -14 -3 -6 -6z"/>
<path d="M7880 1566 c0 -2 9 -6 20 -9 11 -3 18 -1 14 4 -5 9 -34 13 -34 5z"/>
<path d="M7960 1566 c0 -2 9 -6 20 -9 11 -3 18 -1 14 4 -5 9 -34 13 -34 5z"/>
<path d="M8035 1560 c-3 -6 1 -7 9 -4 18 7 21 14 7 14 -6 0 -13 -4 -16 -10z"/>
<path d="M8660 1561 c0 -5 9 -7 20 -4 11 3 20 7 20 9 0 2 -9 4 -20 4 -11 0
-20 -4 -20 -9z"/>
<path d="M8770 1566 c0 -2 9 -6 20 -9 11 -3 18 -1 14 4 -5 9 -34 13 -34 5z"/>
<path d="M8846 1561 c-4 -5 3 -7 14 -4 23 6 26 13 6 13 -8 0 -17 -4 -20 -9z"/>
<path d="M8930 1566 c0 -2 7 -7 16 -10 8 -3 12 -2 9 4 -6 10 -25 14 -25 6z"/>
<path d="M4368 1547 c-7 -21 6 -70 20 -75 11 -3 11 0 1 16 -9 15 -10 24 -2 34
8 9 7 16 -2 25 -10 9 -14 9 -17 0z"/>
<path d="M5115 1550 c-3 -6 1 -7 9 -4 18 7 21 14 7 14 -6 0 -13 -4 -16 -10z"/>
<path d="M7775 1550 c-3 -6 1 -7 9 -4 18 7 21 14 7 14 -6 0 -13 -4 -16 -10z"/>
<path d="M4001 1503 c1 -38 1 -38 9 -9 5 16 15 33 22 37 9 6 6 9 -9 9 -20 0
-23 -5 -22 -37z"/>
<path d="M4051 1522 c-12 -23 4 -52 29 -52 26 0 45 36 29 56 -16 19 -46 18
-58 -4z m46 -8 c8 -21 -13 -42 -28 -27 -13 13 -5 43 11 43 6 0 13 -7 17 -16z"/>
<path d="M4210 1518 c0 -34 12 -46 43 -46 24 0 27 4 27 34 0 41 -17 46 -22 7
-4 -34 -22 -33 -26 2 -4 31 -22 33 -22 3z"/>
<path d="M4301 1522 c-13 -24 4 -52 32 -51 l22 0 -22 9 c-13 5 -23 16 -23 25
0 9 10 20 23 25 l22 9 -22 0 c-12 1 -27 -7 -32 -17z"/>
<path d="M5048 1521 c27 -24 28 -38 2 -44 -17 -4 -17 -4 2 -3 33 2 34 30 1 50
l-28 17 23 -20z"/>
<path d="M5282 1520 c0 -14 2 -19 5 -12 2 6 2 18 0 25 -3 6 -5 1 -5 -13z"/>
<path d="M5938 1521 c27 -24 28 -38 2 -44 -17 -4 -17 -4 2 -3 33 2 34 30 1 50
l-28 17 23 -20z"/>
<path d="M6221 1524 c0 -11 3 -14 6 -6 3 7 2 16 -1 19 -3 4 -6 -2 -5 -13z"/>
<path d="M8022 1520 c0 -14 2 -19 5 -12 2 6 2 18 0 25 -3 6 -5 1 -5 -13z"/>
<path d="M8961 1524 c0 -11 3 -14 6 -6 3 7 2 16 -1 19 -3 4 -6 -2 -5 -13z"/>
<path d="M6827 1519 c7 -7 15 -10 18 -7 3 3 -2 9 -12 12 -14 6 -15 5 -6 -5z"/>
<path d="M7700 1526 c0 -2 7 -7 16 -10 8 -3 12 -2 9 4 -6 10 -25 14 -25 6z"/>
<path d="M8591 1527 c2 -1 13 -9 24 -17 19 -14 19 -14 6 3 -7 9 -18 17 -24 17
-6 0 -8 -1 -6 -3z"/>
<path d="M8668 1523 c7 -3 16 -2 19 1 4 3 -2 6 -13 5 -11 0 -14 -3 -6 -6z"/>
<path d="M5235 1480 c-16 -7 -17 -9 -3 -9 9 -1 20 4 23 9 7 11 7 11 -20 0z"/>
<path d="M5297 1479 c7 -7 15 -10 18 -7 3 3 -2 9 -12 12 -14 6 -15 5 -6 -5z"/>
<path d="M5385 1480 c-16 -7 -17 -9 -3 -9 9 -1 20 4 23 9 7 11 7 11 -20 0z"/>
<path d="M6200 1480 c-9 -6 -10 -10 -3 -10 6 0 15 5 18 10 8 12 4 12 -15 0z"/>
<path d="M6257 1479 c7 -7 15 -10 18 -7 3 3 -2 9 -12 12 -14 6 -15 5 -6 -5z"/>
<path d="M7005 1480 c-16 -7 -17 -9 -3 -9 9 -1 20 4 23 9 7 11 7 11 -20 0z"/>
<path d="M7085 1480 c-16 -7 -17 -9 -3 -9 9 -1 20 4 23 9 7 11 7 11 -20 0z"/>
<path d="M7147 1479 c7 -7 15 -10 18 -7 3 3 -2 9 -12 12 -14 6 -15 5 -6 -5z"/>
<path d="M7870 1479 c0 -5 11 -9 25 -9 14 0 25 2 25 4 0 2 -11 6 -25 8 -14 3
-25 1 -25 -3z"/>
<path d="M7975 1480 c-16 -7 -17 -9 -3 -9 9 -1 20 4 23 9 7 11 7 11 -20 0z"/>
<path d="M8037 1479 c7 -7 15 -10 18 -7 3 3 -2 9 -12 12 -14 6 -15 5 -6 -5z"/>
<path d="M8605 1480 c-16 -7 -17 -9 -3 -9 9 -1 20 4 23 9 7 11 7 11 -20 0z"/>
<path d="M8785 1480 c-16 -7 -17 -9 -3 -9 9 -1 20 4 23 9 7 11 7 11 -20 0z"/>
<path d="M8847 1479 c7 -7 15 -10 18 -7 3 3 -2 9 -12 12 -14 6 -15 5 -6 -5z"/>
<path d="M8940 1480 c-9 -6 -10 -10 -3 -10 6 0 15 5 18 10 8 12 4 12 -15 0z"/>
<path d="M6108 1473 c7 -3 16 -2 19 1 4 3 -2 6 -13 5 -11 0 -14 -3 -6 -6z"/>
<path d="M6818 1473 c7 -3 16 -2 19 1 4 3 -2 6 -13 5 -11 0 -14 -3 -6 -6z"/>
<path d="M7708 1473 c7 -3 16 -2 19 1 4 3 -2 6 -13 5 -11 0 -14 -3 -6 -6z"/>
<path d="M8668 1473 c7 -3 16 -2 19 1 4 3 -2 6 -13 5 -11 0 -14 -3 -6 -6z"/>
<path d="M4040 1020 c0 -14 -5 -18 -16 -13 -10 4 -22 -1 -30 -12 -19 -25 -1
-55 31 -53 23 2 25 7 25 50 0 26 -2 48 -5 48 -3 0 -5 -9 -5 -20z m-3 -36 c8
-21 -13 -42 -28 -27 -13 13 -5 43 11 43 6 0 13 -7 17 -16z"/>
<path d="M4120 1025 c0 -8 -9 -15 -20 -15 -12 0 -22 -9 -26 -24 -8 -34 1 -45
36 -44 29 1 30 3 30 50 0 26 -4 48 -10 48 -5 0 -10 -7 -10 -15z m-3 -41 c8
-22 -15 -44 -26 -25 -10 16 -4 41 10 41 5 0 12 -7 16 -16z"/>
<path d="M4410 1025 c0 -8 -9 -15 -20 -15 -12 0 -22 -9 -26 -24 -8 -34 1 -45
36 -44 29 1 30 3 30 50 0 26 -4 48 -10 48 -5 0 -10 -7 -10 -15z m-3 -41 c8
-22 -15 -44 -26 -25 -10 16 -4 41 10 41 5 0 12 -7 16 -16z"/>
<path d="M4500 1020 c0 -14 -5 -18 -16 -13 -10 4 -22 -1 -30 -12 -19 -25 -1
-55 31 -53 23 2 25 7 25 50 0 26 -2 48 -5 48 -3 0 -5 -9 -5 -20z m-3 -36 c8
-21 -13 -42 -28 -27 -13 13 -5 43 11 43 6 0 13 -7 17 -16z"/>
<path d="M5036 1031 c-4 -5 3 -7 14 -4 23 6 26 13 6 13 -8 0 -17 -4 -20 -9z"/>
<path d="M5110 1031 c0 -5 9 -7 20 -4 11 3 20 7 20 9 0 2 -9 4 -20 4 -11 0
-20 -4 -20 -9z"/>
<path d="M5926 1031 c-4 -5 3 -7 14 -4 23 6 26 13 6 13 -8 0 -17 -4 -20 -9z"/>
<path d="M6000 1036 c0 -2 9 -6 20 -9 11 -3 18 -1 14 4 -5 9 -34 13 -34 5z"/>
<path d="M6816 1031 c-4 -5 3 -7 14 -4 23 6 26 13 6 13 -8 0 -17 -4 -20 -9z"/>
<path d="M6890 1036 c0 -2 9 -6 20 -9 11 -3 18 -1 14 4 -5 9 -34 13 -34 5z"/>
<path d="M7718 1033 c7 -3 16 -2 19 1 4 3 -2 6 -13 5 -11 0 -14 -3 -6 -6z"/>
<path d="M7777 1033 c-14 -14 -7 -43 11 -42 10 0 12 3 5 6 -19 7 -16 31 5 36
14 4 14 5 1 6 -9 0 -19 -2 -22 -6z"/>
<path d="M8668 1033 c7 -3 16 -2 19 1 4 3 -2 6 -13 5 -11 0 -14 -3 -6 -6z"/>
<path d="M3933 1004 c23 -7 22 -21 -4 -29 -28 -9 -19 -29 15 -33 26 -3 27 -1
24 30 -2 27 -7 33 -28 35 -14 1 -18 0 -7 -3z m17 -44 c0 -5 -4 -10 -10 -10 -5
0 -10 5 -10 10 0 6 5 10 10 10 6 0 10 -4 10 -10z"/>
<path d="M4164 999 c-4 -8 -3 -9 4 -5 7 4 17 4 23 0 7 -4 2 -11 -11 -18 -30
-15 -27 -31 5 -32 23 -1 26 2 23 30 -3 32 -30 47 -44 25z m31 -39 c-3 -5 -10
-10 -16 -10 -5 0 -9 5 -9 10 0 6 7 10 16 10 8 0 12 -4 9 -10z"/>
<path d="M4234 998 c-4 -6 0 -16 9 -23 22 -16 21 -22 0 -28 -14 -4 -13 -5 4
-6 30 -1 40 19 17 36 -16 12 -17 15 -4 23 13 8 13 10 -2 10 -9 0 -20 -5 -24
-12z"/>
<path d="M4295 1000 c-3 -5 0 -7 8 -4 8 3 18 1 21 -4 3 -5 -3 -12 -14 -15 -30
-8 -26 -37 5 -35 21 2 25 7 25 35 0 26 -4 33 -19 33 -11 0 -23 -4 -26 -10z
m30 -40 c-3 -5 -10 -10 -16 -10 -5 0 -9 5 -9 10 0 6 7 10 16 10 8 0 12 -4 9
-10z"/>
<path d="M5048 991 c27 -24 28 -38 2 -44 -17 -4 -17 -4 2 -3 33 2 34 30 1 50
l-28 17 23 -20z"/>
<path d="M5938 991 c27 -24 28 -38 2 -44 -17 -4 -17 -4 2 -3 33 2 34 30 1 50
l-28 17 23 -20z"/>
<path d="M5118 993 c7 -3 16 -2 19 1 4 3 -2 6 -13 5 -11 0 -14 -3 -6 -6z"/>
<path d="M6827 989 c7 -7 15 -10 18 -7 3 3 -2 9 -12 12 -14 6 -15 5 -6 -5z"/>
<path d="M7700 996 c0 -2 7 -7 16 -10 8 -3 12 -2 9 4 -6 10 -25 14 -25 6z"/>
<path d="M8591 997 c2 -1 13 -9 24 -17 19 -14 19 -14 6 3 -7 9 -18 17 -24 17
-6 0 -8 -1 -6 -3z"/>
<path d="M8679 983 c-13 -16 -12 -17 4 -4 16 13 21 21 13 21 -2 0 -10 -8 -17
-17z"/>
<path d="M5990 949 c0 -5 11 -9 25 -9 14 0 25 2 25 4 0 2 -11 6 -25 8 -14 3
-25 1 -25 -3z"/>
<path d="M8605 950 c-16 -7 -17 -9 -3 -9 9 -1 20 4 23 9 7 11 7 11 -20 0z"/>
<path d="M5118 943 c7 -3 16 -2 19 1 4 3 -2 6 -13 5 -11 0 -14 -3 -6 -6z"/>
<path d="M6818 943 c7 -3 16 -2 19 1 4 3 -2 6 -13 5 -11 0 -14 -3 -6 -6z"/>
<path d="M6893 943 c9 -2 23 -2 30 0 6 3 -1 5 -18 5 -16 0 -22 -2 -12 -5z"/>
<path d="M7708 943 c7 -3 16 -2 19 1 4 3 -2 6 -13 5 -11 0 -14 -3 -6 -6z"/>
<path d="M7778 943 c7 -3 16 -2 19 1 4 3 -2 6 -13 5 -11 0 -14 -3 -6 -6z"/>
<path d="M8673 943 c9 -2 23 -2 30 0 6 3 -1 5 -18 5 -16 0 -22 -2 -12 -5z"/>
<path d="M3930 472 c0 -21 -5 -43 -12 -50 -7 -7 -8 -12 -2 -12 20 0 34 25 34
62 0 21 -4 38 -10 38 -5 0 -10 -17 -10 -38z"/>
<path d="M5036 501 c-4 -5 3 -7 14 -4 23 6 26 13 6 13 -8 0 -17 -4 -20 -9z"/>
<path d="M5118 503 c7 -3 16 -2 19 1 4 3 -2 6 -13 5 -11 0 -14 -3 -6 -6z"/>
<path d="M5926 501 c-4 -5 3 -7 14 -4 23 6 26 13 6 13 -8 0 -17 -4 -20 -9z"/>
<path d="M6010 503 c8 -3 19 -11 23 -17 6 -7 7 -6 4 4 -2 8 -12 16 -23 17 -13
2 -15 1 -4 -4z"/>
<path d="M6816 501 c-4 -5 3 -7 14 -4 23 6 26 13 6 13 -8 0 -17 -4 -20 -9z"/>
<path d="M6890 506 c0 -2 9 -6 20 -9 11 -3 18 -1 14 4 -5 9 -34 13 -34 5z"/>
<path d="M7718 503 c7 -3 16 -2 19 1 4 3 -2 6 -13 5 -11 0 -14 -3 -6 -6z"/>
<path d="M8691 476 c-1 -33 -4 -38 -21 -33 -11 3 -20 1 -20 -4 0 -5 9 -9 19
-9 11 0 21 -5 23 -12 9 -25 14 17 7 57 l-6 40 -2 -39z"/>
<path d="M3975 470 c-3 -5 0 -7 8 -4 8 3 18 1 21 -4 3 -5 -3 -12 -14 -15 -30
-8 -26 -37 5 -35 21 2 25 7 25 35 0 26 -4 33 -19 33 -11 0 -23 -4 -26 -10z
m30 -40 c-3 -5 -10 -10 -16 -10 -5 0 -9 5 -9 10 0 6 7 10 16 10 8 0 12 -4 9
-10z"/>
<path d="M5048 461 c27 -24 28 -38 2 -44 -17 -4 -17 -4 2 -3 33 2 34 30 1 50
l-28 17 23 -20z"/>
<path d="M5938 461 c27 -24 28 -38 2 -44 -17 -4 -17 -4 2 -3 33 2 34 30 1 50
l-28 17 23 -20z"/>
<path d="M5129 453 c-13 -16 -12 -17 4 -4 9 7 17 15 17 17 0 8 -8 3 -21 -13z"/>
<path d="M6827 459 c7 -7 15 -10 18 -7 3 3 -2 9 -12 12 -14 6 -15 5 -6 -5z"/>
<path d="M7700 466 c0 -2 7 -7 16 -10 8 -3 12 -2 9 4 -6 10 -25 14 -25 6z"/>
<path d="M8591 467 c2 -1 13 -9 24 -17 19 -14 19 -14 6 3 -7 9 -18 17 -24 17
-6 0 -8 -1 -6 -3z"/>
<path d="M7767 453 c-15 -15 -5 -23 26 -22 30 2 30 2 4 6 -15 2 -25 9 -22 14
7 10 1 12 -8 2z"/>
<path d="M6010 420 c-23 -7 -23 -8 -3 -9 12 -1 25 4 28 9 3 6 5 10 3 9 -2 -1
-14 -5 -28 -9z"/>
<path d="M8605 420 c-16 -7 -17 -9 -3 -9 9 -1 20 4 23 9 7 11 7 11 -20 0z"/>
<path d="M5123 413 c9 -2 23 -2 30 0 6 3 -1 5 -18 5 -16 0 -22 -2 -12 -5z"/>
<path d="M6818 413 c7 -3 16 -2 19 1 4 3 -2 6 -13 5 -11 0 -14 -3 -6 -6z"/>
<path d="M6893 413 c9 -2 23 -2 30 0 6 3 -1 5 -18 5 -16 0 -22 -2 -12 -5z"/>
<path d="M7708 413 c7 -3 16 -2 19 1 4 3 -2 6 -13 5 -11 0 -14 -3 -6 -6z"/>
</g>
</svg>
